<?xml version="1.0" encoding="UTF-8"?>
<svg id="Capa_1" data-name="Capa 1" xmlns="http://www.w3.org/2000/svg" viewBox="0 0 300 300">
  <defs>
    <style>
      .cls-1, .cls-2 {
        fill: #000;
        stroke-width: 0px;
      }

      .cls-2 {
        opacity: .76;
      }
    </style>
  </defs>
  <g id="Layer_2" data-name="Layer 2">
    <g>
      <path class="cls-2" d="M210.54,213.16c-5.25-8.98-9.24-18.69-15.78-26.88h-88.62l1.97-3.31c-2.55,2.83-4.7,5.91-6.01,9.53,6.46,11.39,12.89,22.81,19.4,34.18,8.74,15.22,17.59,30.37,26.3,45.6,1.18,2.07,2.65,2.83,5.12,2.81,30.74-.18,61.5-.26,92.24-.34-11.5-20.55-22.76-41.24-34.65-61.56l.03-.03Z"/>
      <path class="cls-1" d="M288.58,179.01c-17.04-28.72-33.73-57.67-50.45-86.57-11.79-20.37-23.73-40.66-34.86-61.37-2.68-5.01-5.43-6.22-10.45-6.14-14.1.24-28.19.08-42.26.08s-28.19-.05-42.29.03c-2.68,0-6.75-.71-3.86,4.38,9.66,17.01,19.35,34.05,29.06,51.03,5.01,8.79,10.13,17.53,15.54,26.91-30.29,0-59.43.16-88.57-.16-4.96-.05-7.43,1.99-9.53,5.7-13.94,24.33-27.75,48.75-41.89,72.97-2.07,3.54-2.23,5.88-.45,9.66,6.33,13.26,14.86,25.15,21.92,37.93,6.96,12.6,14.12,25.09,21.34,37.56,1.65,2.83,2.57,6.3,5.98.08,10.76-19.63,23.02-38.46,33.84-58.06,2.78-5.04,9.16-16.64,11.81-21.71l.87-1.68c1.21-2.02.79-1.92,1.81-3.39h0l4.8-7.48h.05l6.14-10.84c8.24-14.28,16.51-28.59,24.81-42.84,2.81-4.83,5.85-9.53,9.27-15.04,13.94,26.38,29.06,51.11,43.57,76.2.32,1.13.71,2.28,0,2.89,13.89,23.78,26.98,47.98,40.84,71.79,2.78,4.8,4.25,10.68,9.58,13.75,2.31.71,2.73-1.13,3.54-2.57,12.86-22.29,25.44-44.78,38.85-66.73,5.59-9.13,7.38-15.7,1.02-26.41l-.05.03Z"/>
    </g>
  </g>
</svg>