<?xml version="1.0" encoding="UTF-8"?>
<svg id="Capa_1" data-name="Capa 1" xmlns="http://www.w3.org/2000/svg" viewBox="0 0 300 300">
  <defs>
    <style>
      .cls-1 {
        opacity: .76;
      }

      .cls-1, .cls-2 {
        fill: #fff;
        stroke-width: 0px;
      }
    </style>
  </defs>
  <g id="Layer_2" data-name="Layer 2">
    <g>
      <path class="cls-1" d="M210.95,213.59c-5.29-9.04-9.3-18.82-15.88-27.06h-89.22l1.98-3.33c-2.56,2.85-4.73,5.95-6.05,9.59,6.5,11.47,12.98,22.97,19.53,34.41,8.8,15.33,17.71,30.58,26.48,45.9,1.19,2.09,2.67,2.85,5.15,2.83,30.95-.18,61.92-.26,92.87-.34-11.58-20.69-22.91-41.52-34.88-61.97l.03-.03Z"/>
      <path class="cls-2" d="M289.52,179.2c-17.15-28.91-33.96-58.06-50.79-87.16-11.87-20.51-23.89-40.94-35.1-61.79-2.7-5.05-5.47-6.26-10.52-6.18-14.19.24-28.38.08-42.55.08s-28.38-.05-42.57.03c-2.7,0-6.79-.71-3.88,4.41,9.73,17.13,19.48,34.28,29.26,51.38,5.05,8.85,10.2,17.65,15.65,27.09-30.5,0-59.83.16-89.17-.16-4.99-.05-7.48,2.01-9.59,5.73-14.03,24.5-27.93,49.08-42.18,73.47-2.09,3.57-2.25,5.92-.45,9.73,6.37,13.35,14.96,25.32,22.07,38.19,7,12.69,14.22,25.26,21.49,37.82,1.66,2.85,2.59,6.34,6.03.08,10.84-19.77,23.18-38.72,34.07-58.46,2.8-5.07,9.22-16.76,11.89-21.86l.87-1.69c1.22-2.03.79-1.93,1.82-3.41h0l4.84-7.53h.05l6.18-10.91c8.3-14.38,16.62-28.78,24.97-43.13,2.83-4.86,5.89-9.59,9.33-15.14,14.03,26.56,29.26,51.45,43.87,76.72.32,1.14.71,2.3,0,2.91,13.98,23.94,27.17,48.31,41.12,72.28,2.8,4.84,4.28,10.76,9.65,13.85,2.33.71,2.75-1.14,3.57-2.59,12.95-22.44,25.61-45.09,39.11-67.18,5.63-9.2,7.43-15.8,1.03-26.59l-.05.03Z"/>
    </g>
  </g>
</svg>