<?xml version="1.0" encoding="UTF-8"?>
<svg id="Capa_2" data-name="Capa 2" xmlns="http://www.w3.org/2000/svg" viewBox="0 0 429.66 95.52">
  <defs>
    <style>
      .cls-1 {
        fill: #fff;
      }

      .cls-1, .cls-2 {
        stroke-width: 0px;
      }

      .cls-2 {
        fill: #f1f1f1;
      }
    </style>
  </defs>
  <g id="Layer_2" data-name="Layer 2">
    <g>
      <path class="cls-1" d="M217.06,41.43c3.77-5.55,7.25-10.56,10.57-15.67.91-1.39,1.9-1.96,3.52-1.95,5.45.06,10.91.01,16.37.03.68,0,1.53-.3,1.93.57.39.85-.39,1.28-.79,1.86-5.15,7.57-10.27,15.16-15.42,22.73-.93,1.36-1.23,2.48-.14,4.07,5.32,7.74,10.49,15.58,15.74,23.37.57.84,1.34,1.8.99,2.69-.44,1.14-1.76.54-2.68.56-5.09.06-10.18-.03-15.27.07-1.53.03-2.49-.41-3.33-1.7-3.63-5.55-7.36-11.04-11.49-17.2,0,5.61,0,10.46,0,15.31,0,3.53-.02,3.55-3.44,3.56-4,0-8-.06-12,.03-1.88.04-2.56-.69-2.56-2.57.03-24.91.04-49.82-.02-74.72,0-1.99.78-2.48,2.59-2.44,4.18.09,8.37.13,12.55-.02,2.25-.08,2.96.63,2.94,2.94-.11,12.62-.05,25.24-.05,38.49Z"/>
      <path class="cls-1" d="M398.75,25.12c3.95-2.31,7.82-3.58,12.13-3.4,10.1.43,18.73,9.27,18.74,19.35.01,11.91-.05,23.83.05,35.74.02,2.25-.63,3.05-2.92,2.97-4-.15-8.01-.14-12,0-2.27.08-2.99-.74-2.98-3,.09-11.64.06-23.28.03-34.92,0-2.88-1.19-5.03-4.11-6.02-2.73-.93-5.36-.4-7.21,1.69-1.39,1.57-1.73,3.51-1.73,5.56.02,11.28-.05,22.55.06,33.83.02,2.31-.69,2.97-2.94,2.87-3.99-.17-8-.13-12-.01-1.95.06-2.76-.48-2.76-2.59.05-24.92.04-49.83,0-74.75,0-1.73.54-2.46,2.36-2.42,4.27.09,8.55.11,12.82,0,1.93-.05,2.52.64,2.5,2.53-.08,7.36-.03,14.73-.03,22.58Z"/>
      <path class="cls-1" d="M364.24,41.57c-1.46,0-2.91-.05-4.37.01-2.35.1-3.78.32-4.86-2.05-.28-1.24-2.13-2.54-3.23-2.87-2.83-.86-5.76-.87-8.62-.18-1.71.42-3.22,1.3-3.27,3.47-.05,2.08,1.66,2.49,2.99,3.05,3.37,1.43,7.08,1.37,10.6,2.22,4.58,1.11,9.1,2.33,13.08,4.99,9.75,6.49,9.53,20.66-.58,26.68-11.69,6.96-23.79,6.9-35.7.74-5.46-2.82-8.72-7.81-10.02-13.91-.35-1.65.27-2.66,2.09-2.68,4.55-.03,9.09-.05,13.64-.09,1.2-.01,1.83.58,2.08,1.72.4,1.88,1.69,2.93,3.39,3.58,4.05,1.56,8.1,1.57,12.17.1,1.19-.43,2.09-1,2.06-2.47-.02-1.62-1.18-2.26-2.38-2.58-4.27-1.14-8.6-2.1-12.88-3.19-4.95-1.27-9.5-3.29-13.44-6.69-7.52-6.49-6.27-17.83,1.37-23.68,8.16-6.25,17.48-7.39,27.29-5.15,4.98,1.14,9.69,2.94,13.21,6.96,2.38,2.72,4.03,5.75,4.57,9.36.29,1.92-.15,2.89-2.38,2.7-2.26-.19-4.54-.04-6.82-.04Z"/>
      <path class="cls-1" d="M190.56,26.73c.03-2.31-.73-3.01-2.97-2.92-4,.15-8,.03-12,.05-.72,0-1.92-.07-2.08.27-1.34,2.89-2.81.69-4.24.24-2.24-.7-4.44-1.57-6.73-2.04-12.58-2.54-27.16,4.68-32.93,17.72-6.2,14.01.35,31.13,13.11,37.83,9.23,4.85,18.71,5.1,28.16.29.46-.24,1.49-1.16,1.72-.05.48,2.36,2.17,1.75,3.6,1.76,3.55.04,7.09.01,10.64.01q3.66,0,3.67-3.54c0-8.18,0-16.36,0-24.54,0-8.36-.07-16.73.05-25.09ZM159.07,65.73c-6.98-.17-14.86-6.61-14.02-16,.58-6.51,6.27-13.43,14.52-13.42,8.22.01,14.99,6.81,14.5,15,.48,7.29-6.29,14.62-15,14.41Z"/>
      <path class="cls-1" d="M313.06,51.9c0-8.45-.05-16.91.04-25.36.02-1.98-.56-2.78-2.63-2.73-4.27.11-8.55.03-12.82.03-.72,0-1.76-.15-2,.53-.73,2.12-1.86,1.17-3.01.58-7.53-3.85-15.34-4.22-23.15-1.28-14.58,5.47-23.09,20.6-18.31,37.03,4.74,16.33,24.09,25.34,39.84,18.71,1.44-.61,3.47-3.39,5.03.2.14.33,1.35.26,2.07.27,4,.02,8.01-.1,12,.05,2.27.09,3.01-.68,2.98-2.95-.11-8.36-.04-16.73-.04-25.09ZM282.15,65.66c-7.87.16-14.58-6.56-14.65-14.42-.07-8.02,6.64-14.93,14.53-14.96,9.18.32,14.76,6.69,14.8,14.88.04,8.23-5.97,14.33-14.69,14.5Z"/>
      <path class="cls-2" d="M77.41,71.94c-2-3.42-3.52-7.12-6.01-10.24h-33.76l.75-1.26c-.97,1.08-1.79,2.25-2.29,3.63,2.46,4.34,4.91,8.69,7.39,13.02,3.33,5.8,6.7,11.57,10.02,17.37.45.79,1.01,1.08,1.95,1.07,11.71-.07,23.43-.1,35.14-.13-4.38-7.83-8.67-15.71-13.2-23.45Z"/>
      <path class="cls-1" d="M107.14,58.93c-6.49-10.94-12.85-21.97-19.22-32.98-4.49-7.76-9.04-15.49-13.28-23.38-1.02-1.91-2.07-2.37-3.98-2.34-5.37.09-10.74.03-16.1.03-5.37,0-10.74-.02-16.11.01-1.02,0-2.57-.27-1.47,1.67,3.68,6.48,7.37,12.97,11.07,19.44,1.91,3.35,3.86,6.68,5.92,10.25-11.54,0-22.64.06-33.74-.06-1.89-.02-2.83.76-3.63,2.17-5.31,9.27-10.57,18.57-15.96,27.8-.79,1.35-.85,2.24-.17,3.68,2.41,5.05,5.66,9.58,8.35,14.45,2.65,4.8,5.38,9.56,8.13,14.31.63,1.08.98,2.4,2.28.03,4.1-7.48,8.77-14.65,12.89-22.12,1.06-1.92,3.49-6.34,4.5-8.27l.33-.64c.46-.77.3-.73.69-1.29h0l1.83-2.85h.02s2.34-4.13,2.34-4.13c3.14-5.44,6.29-10.89,9.45-16.32,1.07-1.84,2.23-3.63,3.53-5.73,5.31,10.05,11.07,19.47,16.6,29.03.12.43.27.87,0,1.1,5.29,9.06,10.28,18.28,15.56,27.35,1.06,1.83,1.62,4.07,3.65,5.24.88.27,1.04-.43,1.35-.98,4.9-8.49,9.69-17.06,14.8-25.42,2.13-3.48,2.81-5.98.39-10.06Z"/>
    </g>
  </g>
</svg>