<?xml version="1.0" encoding="UTF-8"?>
<svg id="Capa_1" data-name="Capa 1" xmlns="http://www.w3.org/2000/svg" viewBox="0 0 342.75 134.03">
  <defs>
    <style>
      .cls-1 {
        fill: #fff;
      }

      .cls-2 {
        letter-spacing: -.02em;
      }

      .cls-3 {
        fill: #3aaf79;
        font-family: Rouben-Medium, Rouben;
        font-size: 30.24px;
        font-weight: 500;
      }
    </style>
  </defs>
  <g>
    <path class="cls-1" d="M122.9,13.66L13.53,122.96c-3.33,3.33-8.95.96-8.95-3.71V9.95c0-2.88,2.37-5.24,5.24-5.24h109.3c4.73,0,7.1,5.63,3.77,8.95h0Z"/>
    <path class="cls-1" d="M122.9,123.15l-45.86-45.86c-3.33-3.33-.96-8.95,3.71-8.95h45.86c2.88,0,5.24,2.37,5.24,5.24v45.86c0,4.67-5.63,7.04-8.95,3.71Z"/>
  </g>
  <path class="cls-1" d="M191.23,37.13h29.62v18.73c0,14.18-7.31,20.37-21.79,20.37h-14.7c-14.62,0-21.93-6.19-21.93-20.37v-29.4c0-14.1,7.31-20.14,21.93-20.14h14.7c14.47,0,21.79,6.12,21.79,20.14v3.51h-14.7v-2.91c0-5.67-2.54-7.91-8.21-7.91h-12.53c-5.67,0-8.21,2.24-8.21,7.91v28.35c0,5.67,2.54,7.91,8.21,7.91h12.68c5.74,0,8.28-2.24,8.28-7.91v-6.27h-15.07v-12.01s-.07,0-.07,0Z"/>
  <path class="cls-1" d="M227.64,24.59h12.53l.75,5.74c2.54-4.55,7.16-6.71,14.1-6.71h7.98v12.46h-15.29c-4.18,0-5.89,1.49-5.89,5.6v34.25h-14.18s0-51.33,0-51.33Z"/>
  <rect class="cls-1" x="268.23" y="6.31" width="14.18" height="13.13"/>
  <rect class="cls-1" x="268.23" y="24.59" width="14.18" height="51.41"/>
  <path class="cls-1" d="M324.41,69.43c-2.46,4.7-7.16,6.79-14.18,6.79h-2.91c-11.86,0-17.83-5.15-17.83-16.86v-19.85c0-11.64,5.97-16.71,17.83-16.71h2.91c6.19,0,10.52,1.64,13.21,5.3V6.31h14.18v68.94h-12.46l-.75-5.82ZM323.36,40.86c0-4.03-1.72-5.6-5.82-5.6h-8.13c-4.03,0-5.89,1.49-5.89,5.6v17.31c0,3.95,1.79,5.6,5.89,5.6h8.13c4.03,0,5.82-1.64,5.82-5.6v-17.31Z"/>
  <text class="cls-3" transform="translate(162.43 124.71)"><tspan x="0" y="0">Public </tspan><tspan class="cls-2" x="95.36" y="0">A</tspan><tspan x="115.17" y="0">lpha</tspan></text>
</svg>