<?xml version="1.0" encoding="UTF-8"?>
<svg id="Capa_1" data-name="Capa 1" xmlns="http://www.w3.org/2000/svg" viewBox="0 0 100 98.46">
  <defs>
    <style>
      .cls-1 {
        opacity: .65;
      }

      .cls-2 {
        fill: #fff;
        stroke-width: 0px;
      }
    </style>
  </defs>
  <g class="cls-1">
    <path class="cls-2" d="M80.65,59.44c-3.53-4.86-10.3-5.68-15.03-1.89l-5.34,4.28-.72-.44c-.28-.17-.54-.31-.81-.54-4.69-3.75-8.88-8.53-12.8-14.6-1.47-2.31-2.57-4.44-3.24-6.24.71-.55,1.4-1.12,2.07-1.68l3.09-2.51c2.49-1.99,4.02-4.58,4.32-7.3.3-2.71-.64-5.57-2.63-8.06l-4.42-5.51c-.42-.52-.83-1.03-1.36-1.9l-2.98-3.72c-1.87-2.32-4.47-3.83-7.14-4.12-2.79-.31-5.43.53-7.86,2.47l-6.85,5.49c-2.85,2.29-4.78,5.44-5.59,9.19-.99,5.56-.09,10.88.84,14.3,1.91,8.34,5.55,16.33,11.45,25.15h0c7.11,10.52,15.95,19.14,26.28,25.62,5.69,3.53,10.89,5.73,16.03,6.74l1.24.14c4.62.51,8.77-.77,12.59-4.03.92-.89,2.04-1.78,3.41-2.73l2.57-2.06c4.77-4.01,5.46-10.39,1.64-15.16l-8.74-10.89ZM35.53,34.27c-2.9,2.32-2.31,5.03-2.17,5.57l.05.6c.91,3.38,2.5,6.44,4.97,10.62,4.29,6.76,9.13,12.25,14.69,16.7.61.58,1.31,1,1.92,1.38l1.19.73c.28.17.54.31.72.48l.38.34c2.22,1.44,4.82,1.27,6.95-.43l6.84-5.49c.54-.43,1.04-.65,1.4-.61.12.01.54.25,1.05.88l8.79,10.96c.73.91.92,1.7-.31,2.8l-2.25,1.81c-.94.64-1.81,1.37-2.7,2.13-.43.36-.86.73-1.31,1.09-1.68,1.35-3.31,1.83-5.43,1.59l-.77-.08c-5.13-.91-9.69-3.58-12.69-5.51-9.36-5.95-17.27-13.7-23.51-23.03-4.98-7.55-8.26-14.63-10.32-22.3-1.26-4.3-1.53-7.4-.89-10.35v-.02c.35-1.71,1.1-2.93,2.45-3.88l6.65-5.34c.54-.44,1.04-.65,1.39-.61s.67.19,1.23.9l3.24,4.07c.38.53.8,1.09,1.16,1.41l4.4,5.48c.36.44.64,1.15.61,1.4-.04.35-.37.8-.9,1.23l-6.85,5.5Z"/>
  </g>
</svg>