<?xml version="1.0" encoding="UTF-8"?>
<svg id="Capa_1" data-name="Capa 1" xmlns="http://www.w3.org/2000/svg" viewBox="0 0 300 300">
  <defs>
    <style>
      .cls-1 {
        fill: #161f21;
      }

      .cls-1, .cls-2 {
        stroke-width: 0px;
      }

      .cls-2 {
        fill: #fff;
      }
    </style>
  </defs>
  <circle class="cls-2" cx="150" cy="150" r="142.31"/>
  <path class="cls-1" d="M212.36,92.98c-11.8-5.43-24.27-9.28-37.07-11.45-1.62,2.84-3.46,6.66-4.74,9.75-13.62-2.03-27.47-2.03-41.09,0-1.45-3.33-3.08-6.58-4.87-9.75-12.82,2.17-25.3,6.04-37.11,11.5-23.39,34.88-29.75,68.93-26.58,102.46,13.73,10.21,29.12,17.97,45.49,22.96,3.68-4.99,6.94-10.28,9.75-15.81-5.32-1.99-10.45-4.44-15.34-7.33,1.28-.96,2.51-1.93,3.7-2.91,28.8,13.62,62.18,13.62,90.98,0,1.22,1.01,2.49,1.98,3.75,2.92-4.89,2.9-10.04,5.37-15.37,7.36,2.8,5.52,6.06,10.8,9.75,15.77,16.37-4.97,31.76-12.74,45.49-22.96,3.7-38.88-6.4-72.62-26.74-102.53ZM120.13,174.9c-8.87,0-16.15-8.12-16.15-18.1s7.12-18.16,16.15-18.16,16.25,8.12,16.17,18.11c-.08,9.99-7.13,18.15-16.17,18.15ZM179.84,174.9c-8.87,0-16.15-8.12-16.15-18.1s7.12-18.16,16.15-18.16,16.25,8.12,16.15,18.11c-.1,9.99-7.12,18.15-16.15,18.15Z"/>
</svg>