<?xml version="1.0" encoding="UTF-8"?>
<svg id="Capa_1" data-name="Capa 1" xmlns="http://www.w3.org/2000/svg" viewBox="0 0 300 300">
  <defs>
    <style>
      .cls-1 {
        fill: #fff;
        stroke-width: 0px;
      }
    </style>
  </defs>
  <path class="cls-1" d="M150,5.26C69.83,5.26,4.87,70.22,4.87,150.39s64.96,145.13,145.13,145.13,145.13-64.96,145.13-145.13S230.14,5.26,150,5.26ZM70.16,195.32v-26.54l26.72-16.99,25.47,16.99v28.3l-25.83,15.21-26.37-16.99v.03ZM150.33,244.52l-33.98-21.6,16.28-10.62,33.63,21.6-15.92,10.62ZM232.28,197.79l-44.78,25.47-45.29-25.83v-50.62l44.61-26.9,45.47,27.26v50.62ZM232.28,123.13l-44.78-24.43-63.36,36.1v11.69l-27.61-16.28-26.37,15.57v-42.11l80.88-44.61,81.24,45.65v18.42Z"/>
</svg>