<?xml version="1.0" encoding="UTF-8"?>
<svg id="Capa_1" data-name="Capa 1" xmlns="http://www.w3.org/2000/svg" viewBox="0 0 300 300">
  <defs>
    <style>
      .cls-1 {
        fill: #000;
        stroke-width: 0px;
      }
    </style>
  </defs>
  <path class="cls-1" d="M150,4.59C69.68,4.59,4.59,69.68,4.59,150s65.09,145.41,145.41,145.41,145.41-65.09,145.41-145.41S230.3,4.59,150,4.59ZM70.01,195.02v-26.6l26.77-17.02,25.52,17.02v28.36l-25.88,15.24-26.42-17.02v.03ZM150.33,244.31l-34.05-21.64,16.31-10.64,33.69,21.64-15.95,10.64ZM232.44,197.5l-44.87,25.52-45.38-25.88v-50.72l44.69-26.95,45.56,27.31v50.72ZM232.44,122.69l-44.87-24.48-63.48,36.17v11.72l-27.67-16.31-26.42,15.6v-42.19l81.04-44.69,81.4,45.74v18.45Z"/>
</svg>