<?xml version="1.0" encoding="UTF-8"?>
<svg id="Capa_2" data-name="Capa 2" xmlns="http://www.w3.org/2000/svg" viewBox="0 0 366.1 113.93">
  <defs>
    <style>
      .cls-1 {
        fill: #fff;
        stroke-width: 0px;
      }
    </style>
  </defs>
  <g id="Layer_2" data-name="Layer 2">
    <g>
      <path class="cls-1" d="M56.97,0C25.5,0,0,25.5,0,56.97s25.5,56.97,56.97,56.97,56.97-25.5,56.97-56.97S88.43,0,56.97,0ZM25.63,74.61v-10.42l10.49-6.67,10,6.67v11.11l-10.14,5.97-10.35-6.67ZM57.1,93.92l-13.34-8.48,6.39-4.17,13.2,8.48-6.25,4.17ZM89.27,75.58l-17.58,10-17.78-10.14v-19.87l17.51-10.56,17.85,10.7v19.87ZM89.27,46.27l-17.58-9.59-24.87,14.17v4.59l-10.84-6.39-10.35,6.11v-16.53l31.75-17.51,31.89,17.92v7.22Z"/>
      <polygon class="cls-1" points="141.37 21.12 141.37 93.92 159.08 93.92 159.08 67.18 194.51 67.18 194.51 53.84 158.88 53.84 158.88 34.04 199.1 34.04 199.1 21.12 141.37 21.12"/>
      <rect class="cls-1" x="207.85" y="21.12" width="16.26" height="72.8"/>
      <path class="cls-1" d="M238.56,35.57v37.01s0,9.12,5.56,15.24c2.08,2.29,4.64,3.86,7.01,4.93,3.36,1.51,7.27,2.19,10.95,2.27,3.37.08,7.86.02,10.52-1.09,3.39-1.41,8.47-5.97,8.47-5.97v5.97h16.26v-58.49h-16.81l-.12,32.97s-.16,6.58-4.62,9.87c-4.97,3.66-10.19,3.8-14.38,1.98-2.47-1.07-4.23-3.51-5.23-6.2-1.13-3.02-1.63-6.23-1.63-9.46v-29.17s-15.98-.56-15.98.14Z"/>
      <polygon class="cls-1" points="303.3 35.43 322.48 35.43 334.43 52.38 347.63 35.57 365.41 35.57 343.87 64.05 366.1 93.92 347.21 93.92 334.29 75.86 321.23 93.92 302.47 93.92 325.53 64.75 303.3 35.43"/>
    </g>
  </g>
</svg>