<?xml version="1.0" encoding="UTF-8"?>
<svg id="Capa_1" data-name="Capa 1" xmlns="http://www.w3.org/2000/svg" viewBox="0 0 300 300">
  <defs>
    <style>
      .cls-1 {
        fill: #0c1416;
        stroke-width: 0px;
      }
    </style>
  </defs>
  <path class="cls-1" d="M195.72,294.56h-3.47c-4.18-1.8-5.43-5.06-5.42-9.45.02-15.13-.02-30.27-.46-45.4-.19-6.75-2.62-13-7.07-18.28-.65-.77-1.34-1.52-2.18-2.47.76-.13,1.12-.21,1.49-.26,10.52-1.43,20.92-3.29,30.62-7.96,10.55-5.09,19.67-11.74,25.5-22.22,5.57-10.03,8.23-20.87,9.32-32.21,1.73-18.06-1.13-34.77-13.55-48.9-.56-.63-.9-1.97-.63-2.72,3.69-10.52,3.17-21,.08-31.53-2.09-7.11-3.28-7.9-10.53-6.42-.19.04-.37.1-.56.15-10.47,2.69-19.97,7.52-28.98,13.37-1.9,1.24-3.6,1.61-5.91,1.02-22.58-5.72-45.21-5.72-67.8-.05-2.24.56-3.91.22-5.94-.87-7.11-3.82-14.29-7.53-21.61-10.91-4.54-2.1-9.4-3.57-14.54-2.92-.86.11-2.09.77-2.36,1.48-4.38,11.65-5.98,23.51-1.8,35.58.66,1.9.38,3.11-.92,4.58-5.88,6.71-9.77,14.47-11.84,23.17-2.25,9.44-1.92,18.96-.82,28.46,1.33,11.41,4.5,22.32,10.97,31.94,9.08,13.49,22.66,20.2,37.89,24.07,5.64,1.43,11.45,2.2,17.55,3.35-5.26,5.19-7.83,11.5-9.04,18.46-.1.55-.61,1.27-1.11,1.47-8.51,3.45-17.27,5.07-26.18,2-6.84-2.35-11.62-7.43-15.21-13.59-3.5-6-8.29-10.61-14.5-13.7-4.13-2.05-8.46-3.31-13.11-2.13-2.63.67-3.16,1.78-1.53,3.84,1.47,1.85,3.39,3.36,5.14,4.97,2.68,2.46,5.94,4.49,7.96,7.4,3.21,4.63,6.01,9.65,8.26,14.82,3.9,8.98,10.64,14.3,19.89,16.45,8.12,1.88,16.41,2.24,24.72,1.15,1.59-.21,3.16-.48,5.32-.82,0,8.73-.12,17.1.05,25.46.09,4.51-1.31,7.86-5.66,9.61h-3.47c-11.39-3.94-22.53-8.53-32.63-15.14-36.37-23.78-59.44-56.68-67.45-99.66-1.12-6.03-1.58-12.18-2.35-18.28,0-5.79,0-11.57,0-17.36.43-3.61.8-7.23,1.3-10.83,2.61-18.6,8.37-36.14,17.7-52.5,15.4-27.01,37.13-47.27,65.03-60.91,19.99-9.78,41.24-14.34,63.42-14.46,20.27-.11,39.92,3.47,58.55,11.59,33.03,14.39,58.02,37.56,74.45,69.67,14.76,28.84,18.76,59.48,13.88,91.31-2.8,18.28-9.15,35.38-18.78,51.19-11.07,18.17-25.06,33.64-42.53,45.91-12.07,8.48-25.27,14.64-39.15,19.45Z"/>
</svg>