<?xml version="1.0" encoding="UTF-8"?>
<svg id="Capa_1" data-name="Capa 1" xmlns="http://www.w3.org/2000/svg" viewBox="0 0 300 300">
  <defs>
    <style>
      .cls-1 {
        fill: #fff;
        stroke-width: 0px;
      }
    </style>
  </defs>
  <path class="cls-1" d="M194.77,291h-3.42c-4.11-1.77-5.34-4.98-5.34-9.31.02-14.9-.02-29.8-.45-44.69-.19-6.65-2.57-12.8-6.96-17.99-.64-.76-1.32-1.49-2.14-2.43.75-.13,1.11-.2,1.47-.25,10.36-1.4,20.59-3.23,30.14-7.83,10.39-5.01,19.36-11.55,25.1-21.87,5.49-9.87,8.1-20.54,9.17-31.71,1.7-17.77-1.11-34.23-13.34-48.14-.55-.62-.88-1.93-.62-2.68,3.63-10.36,3.12-20.67.08-31.04-2.05-7-3.23-7.77-10.37-6.32-.19.04-.37.1-.55.14-10.31,2.65-19.66,7.41-28.52,13.16-1.87,1.22-3.55,1.58-5.81,1.01-22.23-5.63-44.5-5.63-66.74-.05-2.2.55-3.85.22-5.84-.86-6.99-3.76-14.07-7.41-21.28-10.74-4.47-2.06-9.25-3.51-14.32-2.87-.84.11-2.06.76-2.32,1.46-4.31,11.47-5.89,23.14-1.77,35.02.65,1.87.37,3.06-.9,4.51-5.79,6.61-9.61,14.25-11.65,22.81-2.22,9.29-1.89,18.66-.81,28.01,1.31,11.23,4.43,21.97,10.8,31.44,8.94,13.28,22.31,19.89,37.3,23.69,5.55,1.41,11.27,2.17,17.27,3.29-5.18,5.11-7.71,11.32-8.9,18.17-.09.54-.6,1.25-1.09,1.45-8.38,3.39-17,4.99-25.77,1.97-6.74-2.32-11.44-7.31-14.97-13.38-3.44-5.91-8.16-10.45-14.27-13.48-4.06-2.02-8.32-3.26-12.9-2.1-2.59.66-3.11,1.76-1.5,3.78,1.44,1.83,3.33,3.3,5.06,4.89,2.64,2.42,5.85,4.42,7.83,7.28,3.16,4.56,5.92,9.5,8.13,14.59,3.84,8.84,10.48,14.08,19.58,16.19,7.99,1.85,16.16,2.2,24.34,1.13,1.56-.2,3.11-.48,5.24-.8,0,8.59-.11,16.83.05,25.07.09,4.44-1.29,7.74-5.57,9.46h-3.42c-11.21-3.88-22.18-8.4-32.12-14.9-35.8-23.41-58.51-55.79-66.4-98.11-1.11-5.93-1.56-11.99-2.31-17.99,0-5.7,0-11.39,0-17.09.42-3.55.78-7.12,1.28-10.66,2.57-18.31,8.24-35.58,17.42-51.68,15.16-26.59,36.55-46.53,64.01-59.96,19.68-9.63,40.6-14.12,62.43-14.23,19.95-.1,39.3,3.42,57.64,11.41,32.52,14.17,57.11,36.97,73.29,68.58,14.53,28.39,18.46,58.55,13.67,89.88-2.75,17.99-9.01,34.82-18.49,50.39-10.89,17.88-24.67,33.11-41.86,45.19-11.88,8.35-24.88,14.41-38.54,19.15Z"/>
</svg>