<?xml version="1.0" encoding="UTF-8"?>
<svg id="Capa_1" xmlns="http://www.w3.org/2000/svg" width="955.7" height="233.8" viewBox="0 0 955.7 233.8">
  <defs>
    <style>
      .cls-1 {
        isolation: isolate;
      }

      .cls-2 {
        fill: #3bb079;
      }

      .cls-3 {
        fill: #8cd3ae;
      }
    </style>
  </defs>
  <g id="Capa_1-2" data-name="Capa_1">
    <g id="Capa_1-2">
      <g>
        <g>
          <path class="cls-2" d="M211.1,37.1L40.1,208c-5.2,5.2-14,1.5-14-5.8V31.3c0-4.5,3.7-8.2,8.2-8.2h170.9c7.4,0,11.1,8.8,5.9,14h0Z"/>
          <path class="cls-3" d="M211.1,208.3l-71.7-71.7c-5.2-5.2-1.5-14,5.8-14h71.7c4.5,0,8.2,3.7,8.2,8.2v71.7c0,7.3-8.8,11-14,5.8Z"/>
        </g>
        <path class="cls-2" d="M342.2,111.4h39.7v25.1c0,19-9.8,27.3-29.2,27.3h-19.7c-19.6,0-29.4-8.3-29.4-27.3v-39.4c0-18.9,9.8-27,29.4-27h19.7c19.4,0,29.2,8.2,29.2,27v4.7h-19.7v-3.9c0-7.6-3.4-10.6-11-10.6h-16.8c-7.6,0-11,3-11,10.6v38c0,7.6,3.4,10.6,11,10.6h17c7.7,0,11.1-3,11.1-10.6v-8.4h-20.2v-16.1s-.1,0-.1,0Z"/>
        <path class="cls-2" d="M391,94.6h16.8l1,7.7c3.4-6.1,9.6-9,18.9-9h10.7v16.7h-20.5c-5.6,0-7.9,2-7.9,7.5v45.9h-19s0-68.8,0-68.8Z"/>
        <rect class="cls-2" x="445.4" y="70.1" width="19" height="17.6"/>
        <rect class="cls-2" x="445.4" y="94.6" width="19" height="68.9"/>
        <path class="cls-2" d="M520.7,154.7c-3.3,6.3-9.6,9.1-19,9.1h-3.9c-15.9,0-23.9-6.9-23.9-22.6v-26.6c0-15.6,8-22.4,23.9-22.4h3.9c8.3,0,14.1,2.2,17.7,7.1v-29.2h19v92.4h-16.7l-1-7.8ZM519.3,116.4c0-5.4-2.3-7.5-7.8-7.5h-10.9c-5.4,0-7.9,2-7.9,7.5v23.2c0,5.3,2.4,7.5,7.9,7.5h10.9c5.4,0,7.8-2.2,7.8-7.5v-23.2Z"/>
      </g>
      <g class="cls-1">
        <g class="cls-1">
          <g class="cls-1">
            <path class="cls-3" d="M565.93,95.92c0-18.46,8.89-25.97,28.16-25.97h22.28c19.28,0,28.3,7.52,28.3,25.97v42.24c0,18.46-9.02,26.11-28.3,26.11h-22.28c-19.28,0-28.16-7.66-28.16-26.11v-42.24ZM593.68,150.6h23.24c9.43,0,13.26-3.28,13.26-12.71v-41.42c0-9.43-3.83-12.85-13.26-12.85h-23.24c-9.57,0-13.26,3.42-13.26,12.85v41.42c0,9.43,3.69,12.71,13.26,12.71Z"/>
            <path class="cls-3" d="M659.3,94.55h12.3l.68,7.52c3.28-6.15,9.3-8.89,18.46-8.89h6.29c16.4,0,24.33,6.7,24.33,22.69v25.7c0,16-7.93,22.69-24.33,22.69h-6.29c-8.2,0-13.94-2.19-17.36-7.11v34.18h-14.08v-96.79ZM673.38,141.16c0,7.25,2.87,9.84,10.12,9.84h13.67c7.25,0,10.12-2.6,10.12-9.84v-24.88c0-7.25-2.87-9.84-10.12-9.84h-13.67c-7.25,0-10.12,2.6-10.12,9.84v24.88Z"/>
            <path class="cls-3" d="M747.2,141.57v2.46c0,5.61,2.19,7.52,7.79,7.52h14.9c5.6,0,7.79-1.91,7.79-7.52v-.55c0-4.65-2.19-6.42-7.24-7.25l-18.87-3.14c-13.26-2.19-18.46-8.61-18.46-19.14v-.96c0-13.94,6.97-19.82,21.33-19.82h16c14.35,0,21.33,5.88,21.33,19.82v2.87h-14.08v-2.46c0-5.61-2.19-7.52-7.79-7.52h-14.9c-5.6,0-7.79,1.91-7.79,7.52v.55c0,4.65,2.19,6.43,7.25,7.25l18.87,3.14c13.26,2.19,18.46,8.61,18.46,19.14v.96c0,13.94-6.97,19.82-21.33,19.82h-16c-14.35,0-21.33-5.88-21.33-19.82v-2.87h14.08Z"/>
          </g>
        </g>
      </g>
    </g>
  </g>
</svg>