<?xml version="1.0" encoding="utf-8"?>
<!-- Generator: Adobe Illustrator 28.2.0, SVG Export Plug-In . SVG Version: 6.00 Build 0)  -->
<svg version="1.1" id="Capa_1" xmlns="http://www.w3.org/2000/svg" xmlns:xlink="http://www.w3.org/1999/xlink" x="0px" y="0px"
	 viewBox="0 0 955.7 233.8" style="enable-background:new 0 0 955.7 233.8;" xml:space="preserve">
<style type="text/css">
	.st0{fill:#3BB079;}
	.st1{fill:#8CD3AE;}
	.st2{opacity:0.51;fill:#8CD3AE;}
	.st3{opacity:0.51;}
	.st4{fill:#3BAF79;}
	.st5{fill:#FFFFFF;}
	.st6{opacity:0.51;fill:#FFFFFF;}
</style>
<g>
	<g>
		<path d="M211.1,37.1L40.1,208c-5.2,5.2-14,1.5-14-5.8V31.3c0-4.5,3.7-8.2,8.2-8.2h170.9C212.6,23.1,216.3,31.9,211.1,37.1z"/>
		<path d="M211.1,208.3l-71.7-71.7c-5.2-5.2-1.5-14,5.8-14h71.7c4.5,0,8.2,3.7,8.2,8.2v71.7C225.1,209.8,216.3,213.5,211.1,208.3z"
			/>
	</g>
	<path d="M342.2,111.4h39.7v25.1c0,19-9.8,27.3-29.2,27.3h-19.7c-19.6,0-29.4-8.3-29.4-27.3V97.1c0-18.9,9.8-27,29.4-27h19.7
		c19.4,0,29.2,8.2,29.2,27v4.7h-19.7v-3.9c0-7.6-3.4-10.6-11-10.6h-16.8c-7.6,0-11,3-11,10.6v38c0,7.6,3.4,10.6,11,10.6h17
		c7.7,0,11.1-3,11.1-10.6v-8.4h-20.2L342.2,111.4L342.2,111.4z"/>
	<path d="M391,94.6h16.8l1,7.7c3.4-6.1,9.6-9,18.9-9h10.7v16.7h-20.5c-5.6,0-7.9,2-7.9,7.5v45.9h-19V94.6z"/>
	<rect x="445.4" y="70.1" width="19" height="17.6"/>
	<rect x="445.4" y="94.6" width="19" height="68.9"/>
	<path d="M520.7,154.7c-3.3,6.3-9.6,9.1-19,9.1h-3.9c-15.9,0-23.9-6.9-23.9-22.6v-26.6c0-15.6,8-22.4,23.9-22.4h3.9
		c8.3,0,14.1,2.2,17.7,7.1V70.1h19v92.4h-16.7L520.7,154.7z M519.3,116.4c0-5.4-2.3-7.5-7.8-7.5h-10.9c-5.4,0-7.9,2-7.9,7.5v23.2
		c0,5.3,2.4,7.5,7.9,7.5h10.9c5.4,0,7.8-2.2,7.8-7.5V116.4z"/>
	<g>
		<path d="M646.3,128.1v8.6c0,19.2-9.7,27.5-29.4,27.5h-19.2c-19.7,0-29.4-8.3-29.4-27.5V97.1c0-19,9.7-27.2,29.4-27.2h19.2
			c19.7,0,29.4,8.2,29.4,27.2v9h-19.8v-8.2c0-7.7-3.3-10.7-11.1-10.7h-16.1c-7.8,0-11.1,3-11.1,10.7v38.3c0,7.7,3.3,10.7,11.1,10.7
			h16.1c7.8,0,11.1-3,11.1-10.7v-8.1L646.3,128.1L646.3,128.1z"/>
		<path d="M683.4,164.2c-14.8,0-22.2-6.7-22.2-21.5V64.1h19.2v76.7c0,4.6,2.1,6.6,6.8,6.6h6.2v16.8L683.4,164.2L683.4,164.2z"/>
		<path d="M703.8,116.2c0-16.7,8.6-24.1,25.9-24.1h14.8c17.1,0,25.7,7.4,25.7,24.1V140c0,16.8-8.6,24.2-25.7,24.2h-14.8
			c-17.2,0-25.9-7.4-25.9-24.2V116.2z M731.3,147.4h11.5c5.7,0,8.2-2.2,8.2-7.9v-22.6c0-5.7-2.5-7.9-8.2-7.9h-11.5
			c-5.7,0-8.3,2.2-8.3,7.9v22.6C722.9,145.2,725.5,147.4,731.3,147.4z"/>
		<path d="M804.7,93.5v46c0,5.7,2.6,7.9,8.3,7.9h8.7c5.7,0,8.2-2.2,8.2-7.9v-46h19.2V140c0,16.8-8.6,24.2-25.7,24.2h-12.2
			c-17.1,0-25.7-7.4-25.7-24.2V93.5L804.7,93.5L804.7,93.5z"/>
		<path d="M911.8,155.1c-3.3,6.3-9.7,9.2-19.2,9.2h-4c-16,0-24.1-7-24.1-22.7v-26.8c0-15.7,8.1-22.6,24.1-22.6h4
			c8.3,0,14.2,2.2,17.8,7.1V64.1h19.2v98.8h-16.8L911.8,155.1L911.8,155.1z M910.5,116.5c0-5.5-2.3-7.5-7.8-7.5h-10.9
			c-5.5,0-7.9,2.1-7.9,7.5v23.4c0,5.3,2.5,7.5,7.9,7.5h10.9c5.5,0,7.8-2.2,7.8-7.5V116.5z"/>
	</g>
</g>
</svg>
