<?xml version="1.0" encoding="UTF-8"?>
<svg id="Capa_1" xmlns="http://www.w3.org/2000/svg" width="955.7" height="233.8" viewBox="0 0 955.7 233.8">
  <defs>
    <style>
      .cls-1 {
        isolation: isolate;
      }

      .cls-2 {
        fill: #3bb079;
      }

      .cls-3 {
        fill: #8cd3ae;
      }
    </style>
  </defs>
  <g id="Capa_1-2" data-name="Capa_1">
    <g id="Capa_1-2">
      <g>
        <g>
          <path class="cls-2" d="M211.1,37.1L40.1,208c-5.2,5.2-14,1.5-14-5.8V31.3c0-4.5,3.7-8.2,8.2-8.2h170.9c7.4,0,11.1,8.8,5.9,14h0Z"/>
          <path class="cls-3" d="M211.1,208.3l-71.7-71.7c-5.2-5.2-1.5-14,5.8-14h71.7c4.5,0,8.2,3.7,8.2,8.2v71.7c0,7.3-8.8,11-14,5.8Z"/>
        </g>
        <path class="cls-2" d="M342.2,111.4h39.7v25.1c0,19-9.8,27.3-29.2,27.3h-19.7c-19.6,0-29.4-8.3-29.4-27.3v-39.4c0-18.9,9.8-27,29.4-27h19.7c19.4,0,29.2,8.2,29.2,27v4.7h-19.7v-3.9c0-7.6-3.4-10.6-11-10.6h-16.8c-7.6,0-11,3-11,10.6v38c0,7.6,3.4,10.6,11,10.6h17c7.7,0,11.1-3,11.1-10.6v-8.4h-20.2v-16.1s-.1,0-.1,0Z"/>
        <path class="cls-2" d="M391,94.6h16.8l1,7.7c3.4-6.1,9.6-9,18.9-9h10.7v16.7h-20.5c-5.6,0-7.9,2-7.9,7.5v45.9h-19s0-68.8,0-68.8Z"/>
        <rect class="cls-2" x="445.4" y="70.1" width="19" height="17.6"/>
        <rect class="cls-2" x="445.4" y="94.6" width="19" height="68.9"/>
        <path class="cls-2" d="M520.7,154.7c-3.3,6.3-9.6,9.1-19,9.1h-3.9c-15.9,0-23.9-6.9-23.9-22.6v-26.6c0-15.6,8-22.4,23.9-22.4h3.9c8.3,0,14.1,2.2,17.7,7.1v-29.2h19v92.4h-16.7l-1-7.8ZM519.3,116.4c0-5.4-2.3-7.5-7.8-7.5h-10.9c-5.4,0-7.9,2-7.9,7.5v23.2c0,5.3,2.4,7.5,7.9,7.5h10.9c5.4,0,7.8-2.2,7.8-7.5v-23.2Z"/>
      </g>
      <g class="cls-1">
        <g class="cls-1">
          <g class="cls-1">
            <path class="cls-3" d="M567.03,94.69c0-17.5,9.02-24.47,26.38-24.47h24.06c17.5,0,26.38,6.97,26.38,24.47v44.84c0,17.5-8.89,24.47-26.38,24.47h-24.06c-17.36,0-26.38-6.97-26.38-24.47v-44.84ZM593.27,155.66h24.47c11.76,0,17.36-4.1,17.36-16.27v-44.43c0-12.3-5.47-16.4-17.36-16.4h-24.47c-11.89,0-17.5,4.24-17.5,16.4v44.43c0,12.17,5.74,16.27,17.5,16.27Z"/>
            <path class="cls-3" d="M659.84,95.37h7.66l.27,7.25c3.14-5.6,9.02-8.2,18.04-8.2h10.66c15.31,0,22.42,6.42,22.42,20.92v27.75c0,14.49-7.11,20.92-22.42,20.92h-10.66c-8.61,0-14.35-2.32-17.5-7.38v34.86h-8.48v-96.1ZM668.32,142.8c0,9.3,4.1,13.12,13.81,13.12h14.49c9.84,0,13.81-3.83,13.81-13.12v-27.2c0-9.43-3.96-13.12-13.81-13.12h-14.49c-9.71,0-13.81,3.69-13.81,13.12v27.2Z"/>
            <path class="cls-3" d="M740.77,141.85v4.24c0,7.25,3.28,10.12,11.35,10.12h16.95c8.2,0,11.35-2.87,11.35-10.12v-.82c0-6.7-2.87-9.57-10.39-10.66l-20.5-3.42c-12.3-1.91-17.22-7.66-17.22-18.04v-.96c0-12.44,6.29-17.77,19.55-17.77h17.5c13.26,0,19.55,5.33,19.55,17.77v4.37h-8.47v-4.24c0-7.38-3.14-10.12-11.35-10.12h-16.95c-8.06,0-11.35,2.73-11.35,10.12v.82c0,6.7,2.87,9.57,10.39,10.66l20.5,3.42c12.44,1.91,17.22,7.66,17.22,18.04v.96c0,12.3-6.29,17.77-19.55,17.77h-17.5c-13.26,0-19.55-5.47-19.55-17.77v-4.38h8.48Z"/>
          </g>
        </g>
      </g>
    </g>
  </g>
</svg>