<?xml version="1.0" encoding="utf-8"?>
<!-- Generator: Adobe Illustrator 27.3.1, SVG Export Plug-In . SVG Version: 6.00 Build 0)  -->
<svg version="1.1" id="Capa_1" xmlns="http://www.w3.org/2000/svg" xmlns:xlink="http://www.w3.org/1999/xlink" x="0px" y="0px"
	 viewBox="0 0 50 50" style="enable-background:new 0 0 50 50;" xml:space="preserve">
<style type="text/css">
	.st0{fill:#36B079;}
	.st1{fill:none;stroke:#FF0000;stroke-linecap:round;stroke-linejoin:round;stroke-miterlimit:10;}
	.st2{fill:#FFFFFF;}
</style>
<path class="st0" d="M13.44,48.94c-0.08,0-0.16-0.01-0.24-0.04L2.32,44.72c-0.35-0.13-0.52-0.52-0.39-0.87
	c0.13-0.35,0.52-0.52,0.87-0.39l10.89,4.18c0.35,0.13,0.52,0.52,0.39,0.87C13.97,48.78,13.71,48.94,13.44,48.94z"/>
<path class="st0" d="M25.87,15.29c-0.07,0-0.15-0.01-0.22-0.04L8.34,9.24c-0.28-0.1-0.46-0.36-0.45-0.66
	C7.9,8.29,8.1,8.04,8.38,7.96l23.5-6.33c0.14-0.04,0.28-0.03,0.41,0.02l15.8,5.95c0.27,0.1,0.44,0.36,0.43,0.65
	c-0.01,0.29-0.21,0.54-0.48,0.62l-21.98,6.39C26,15.29,25.93,15.29,25.87,15.29z M10.83,8.69l15.06,5.23l19.85-5.77L32.02,2.99
	L10.83,8.69z"/>
<path class="st1" d="M47.86,12.25"/>
<path class="st0" d="M26.03,48.86c-0.13,0-0.26-0.04-0.37-0.11c-0.19-0.12-0.3-0.33-0.3-0.55L25.2,14.63c0-0.3,0.2-0.56,0.48-0.65
	L47.8,7.6c0.21-0.06,0.43-0.02,0.6,0.12c0.17,0.13,0.27,0.34,0.26,0.55l-0.13,4.01l-0.96,27.34c-0.01,0.26-0.17,0.5-0.41,0.6
	l-20.86,8.6C26.21,48.85,26.12,48.86,26.03,48.86z M26.54,15.13l0.15,32.07l19.54-8.06l1.05-29.99L26.54,15.13z"/>
<path class="st0" d="M26.03,49.03c-0.08,0-0.16-0.02-0.24-0.05l-7.26-2.83c-0.26-0.1-0.43-0.35-0.43-0.63l0.12-28.26l0.01-0.65
	l-9.9-3.53c-0.27-0.09-0.44-0.35-0.45-0.63L7.89,8.61c0-0.22,0.11-0.42,0.28-0.55c0.18-0.13,0.41-0.16,0.61-0.08l17.32,6.17
	c0.27,0.09,0.44,0.35,0.44,0.63l0.16,33.57c0,0.22-0.11,0.43-0.29,0.56C26.3,48.99,26.17,49.03,26.03,49.03z M19.45,45.07l5.91,2.3
	L25.2,15.26L9.23,9.56l0.01,2.42l9.91,3.53c0.27,0.1,0.45,0.35,0.45,0.64l-0.02,1.12L19.45,45.07z"/>
<g>
	<polygon class="st2" points="18.78,45.53 18.83,17.23 18.88,17.26 18.9,17.26 	"/>
	<path d="M18.78,45.75C18.78,45.75,18.77,45.75,18.78,45.75c-0.12,0-0.22-0.1-0.22-0.22v0l0.05-28.29c0-0.08,0.04-0.15,0.1-0.19
		c0.06-0.04,0.14-0.05,0.21-0.02l0.05,0.02c0.08,0.04,0.15,0.13,0.15,0.21L19,45.53C19,45.65,18.9,45.75,18.78,45.75z"/>
</g>
<path class="st0" d="M13.52,48.78c-0.12,0-0.25-0.03-0.36-0.1c-0.2-0.12-0.32-0.34-0.31-0.57l0.16-28.82L2.13,15.42
	c-0.27-0.1-0.45-0.35-0.45-0.64c0-0.29,0.19-0.54,0.46-0.63l7.02-2.33c0.14-0.05,0.29-0.05,0.44,0l9.3,3.3
	c0.27,0.09,0.45,0.35,0.45,0.63l0.11,29.78c0,0.26-0.14,0.49-0.37,0.6l-5.25,2.58C13.72,48.75,13.62,48.78,13.52,48.78z M4.41,14.81
	l9.5,3.37c0.27,0.1,0.45,0.35,0.45,0.64L14.2,47.03l3.9-1.92L18,16.22l-8.64-3.06L4.41,14.81z"/>
<path class="st0" d="M16.58,37.58c-0.15,0-0.29-0.07-0.38-0.2c-0.88-1.36-1.28-2.69-1.2-3.97c0.02-0.37,0.21-1.07,0.66-2.74
	c0.19-0.7,0.32-1.19,0.43-1.55c0.22-0.8,0.26-0.93,0.28-1.26c0.09-1.09-0.11-1.98-0.31-2.92c-0.12-0.55-0.23-0.9-0.34-1.24
	c-0.14-0.44-0.27-0.86-0.39-1.6c-0.15-0.95-0.18-1.76-0.17-2.09c0.08-2.64,3.04-4.84,4.3-5.67c0.21-0.13,0.48-0.08,0.62,0.13
	c0.13,0.21,0.08,0.48-0.13,0.62c-0.9,0.58-3.83,2.66-3.9,4.95c-0.01,0.28,0.01,1.04,0.16,1.93c0.11,0.67,0.22,1.04,0.36,1.47
	c0.11,0.34,0.23,0.73,0.36,1.32c0.21,0.96,0.43,1.96,0.33,3.19c-0.03,0.42-0.08,0.59-0.31,1.43c-0.1,0.36-0.24,0.85-0.42,1.55
	c-0.37,1.36-0.61,2.27-0.63,2.57c-0.07,1.08,0.28,2.24,1.05,3.43c0.13,0.21,0.08,0.48-0.13,0.62
	C16.75,37.56,16.66,37.58,16.58,37.58z"/>
<g>
	<line class="st2" x1="2.35" y1="14.79" x2="2.64" y2="43.93"/>
	<path class="st0" d="M2.64,44.6c-0.37,0-0.67-0.3-0.67-0.66L1.68,14.79c0-0.37,0.29-0.67,0.66-0.68c0,0,0,0,0.01,0
		c0.37,0,0.67,0.3,0.67,0.66l0.29,29.15C3.31,44.29,3.01,44.6,2.64,44.6C2.64,44.6,2.64,44.6,2.64,44.6z"/>
</g>
<g>
	<path class="st0" d="M5.33,24.86c-0.06-1.13,0.12-2.21,0.51-3.09l-0.41-0.69l-0.39-0.66c-0.05,0.09-0.11,0.18-0.16,0.27
		c-0.65,1.16-0.96,2.67-0.88,4.23c0.07,1.44,0.46,2.74,1.05,3.74l0.4-0.69l0.41-0.71C5.55,26.56,5.37,25.74,5.33,24.86z
		 M12.08,24.53c-0.07-1.35-0.42-2.63-1-3.65l-0.45,0.59l-0.46,0.6c0.33,0.74,0.52,1.61,0.57,2.53c0.06,1.16-0.13,2.26-0.54,3.15
		l0.38,0.73l0.36,0.69c0.08-0.13,0.17-0.26,0.25-0.41C11.85,27.6,12.16,26.1,12.08,24.53z M9.67,28.65c-0.41,0.51-0.89,0.8-1.4,0.82
		c-0.71,0.04-1.41-0.45-1.94-1.26l-0.37,0.64L5.6,29.48c0.71,0.84,1.62,1.34,2.59,1.34c0.05,0,0.1,0,0.14,0
		c0.73-0.04,1.41-0.35,1.99-0.91L10,29.29L9.67,28.65z M7.73,18.64c-0.79,0.04-1.51,0.39-2.11,1.02l0.36,0.6l0.37,0.62
		c0.42-0.56,0.92-0.87,1.45-0.9c0.03,0,0.05,0,0.08,0c0.64,0,1.28,0.42,1.81,1.18c0.01,0.01,0.02,0.03,0.03,0.04l0.43-0.56
		l0.42-0.55C9.77,19.1,8.77,18.59,7.73,18.64z"/>
</g>
<g>
	<path class="st2" d="M7.44,24.48l-0.46,0.8c-0.03-0.16-0.04-0.33-0.05-0.5C6.91,24.41,6.94,24.05,7,23.74L7.44,24.48z"/>
	<path class="st2" d="M9.14,24.68c0.02,0.33,0,0.64-0.05,0.92l-0.65-1.24l0-0.01v0l0.54-0.7C9.06,23.95,9.12,24.3,9.14,24.68z"/>
	<path class="st0" d="M7,23.74l-0.47-0.79c-0.21,0.5-0.31,1.15-0.27,1.87c0.03,0.48,0.11,0.92,0.24,1.31l0.49-0.84l0.46-0.8L7,23.74
		z M9.81,24.64c-0.03-0.62-0.16-1.18-0.36-1.63l-0.48,0.63l-0.54,0.7v0l0,0.01l0.65,1.24l0.46,0.88
		C9.75,25.98,9.85,25.35,9.81,24.64z M8.3,26.01c-0.06,0.16-0.13,0.27-0.18,0.32c-0.09-0.08-0.23-0.29-0.34-0.63l-0.42,0.73
		l-0.37,0.64c0.31,0.39,0.7,0.62,1.14,0.62h0.06c0.3-0.01,0.58-0.14,0.81-0.35l-0.33-0.63L8.3,26.01z M7.89,21.77
		c-0.3,0.01-0.58,0.14-0.81,0.35l0.35,0.6l0.38,0.64c0.05-0.11,0.1-0.19,0.14-0.23C8,23.16,8.05,23.22,8.1,23.31l0.42-0.55
		l0.42-0.54C8.64,21.91,8.28,21.74,7.89,21.77z"/>
</g>
<path class="st0" d="M22.47,23.99c-0.59,0-1.17-0.29-1.6-0.8c-0.41-0.49-0.65-1.15-0.69-1.85c-0.08-1.55,0.85-2.81,2.1-2.87
	c1.26-0.07,2.3,1.1,2.38,2.65l0,0c0.08,1.55-0.85,2.81-2.1,2.87C22.53,23.98,22.5,23.99,22.47,23.99z M22.38,19.8
	c-0.01,0-0.02,0-0.03,0c-0.43,0.02-0.87,0.63-0.83,1.47c0.02,0.41,0.16,0.8,0.38,1.06c0.1,0.12,0.31,0.33,0.59,0.32
	c0.43-0.02,0.87-0.63,0.83-1.47l0,0c-0.02-0.41-0.16-0.8-0.38-1.06C22.84,19.99,22.64,19.8,22.38,19.8z"/>
<path class="st0" d="M22.47,31.11c-0.59,0-1.17-0.29-1.6-0.8c-0.41-0.49-0.65-1.15-0.69-1.85c-0.04-0.7,0.14-1.38,0.5-1.91
	c0.39-0.58,0.98-0.93,1.6-0.96c1.26-0.07,2.3,1.1,2.38,2.65c0.08,1.55-0.85,2.81-2.1,2.87C22.53,31.11,22.5,31.11,22.47,31.11z
	 M22.38,26.92c-0.01,0-0.02,0-0.03,0c-0.27,0.01-0.47,0.24-0.56,0.37c-0.19,0.29-0.29,0.69-0.27,1.09c0.02,0.41,0.16,0.8,0.38,1.06
	c0.1,0.12,0.31,0.33,0.59,0.32c0.43-0.02,0.87-0.63,0.83-1.47c-0.02-0.41-0.16-0.8-0.38-1.06C22.84,27.12,22.64,26.92,22.38,26.92z"
	/>
<path class="st0" d="M22.47,38.19c-0.59,0-1.17-0.29-1.6-0.8c-0.41-0.49-0.65-1.15-0.69-1.85c-0.08-1.55,0.85-2.81,2.1-2.87
	c1.26-0.06,2.3,1.1,2.38,2.65l0,0c0.08,1.55-0.85,2.81-2.1,2.87C22.53,38.19,22.5,38.19,22.47,38.19z M22.38,34
	c-0.01,0-0.02,0-0.02,0c-0.43,0.02-0.87,0.63-0.83,1.47c0.02,0.41,0.16,0.8,0.38,1.06c0.1,0.12,0.31,0.33,0.59,0.32
	c0.43-0.02,0.87-0.63,0.83-1.47l0,0C23.28,34.56,22.8,34,22.38,34z"/>
<g>
	<polygon class="st2" points="23.48,44.54 21.01,43.67 21.01,42.22 23.48,43.1 	"/>
	<path class="st0" d="M23.48,45.21c-0.08,0-0.15-0.01-0.22-0.04l-2.47-0.88c-0.27-0.1-0.45-0.35-0.45-0.63v-1.45
		c0-0.22,0.11-0.42,0.28-0.55c0.18-0.13,0.41-0.16,0.61-0.08l2.47,0.88c0.27,0.1,0.45,0.35,0.45,0.63v1.45
		c0,0.22-0.11,0.42-0.28,0.55C23.75,45.17,23.62,45.21,23.48,45.21z M21.68,43.19l1.13,0.4v-0.02l-1.13-0.4V43.19z"/>
</g>
<g>
	<circle class="st0" cx="20.1" cy="14.66" r="0.34"/>
	<path class="st0" d="M20.1,15.68c-0.56,0-1.01-0.45-1.01-1.01c0-0.56,0.45-1.01,1.01-1.01c0.56,0,1.01,0.45,1.01,1.01
		C21.11,15.22,20.65,15.68,20.1,15.68z M20.1,14.34c-0.18,0-0.33,0.15-0.33,0.33c0,0.18,0.15,0.33,0.33,0.33s0.33-0.15,0.33-0.33
		C20.42,14.48,20.28,14.34,20.1,14.34z"/>
</g>
<g>
	<circle class="st0" cx="16.52" cy="37.41" r="0.34"/>
	<path class="st0" d="M16.52,38.42c-0.56,0-1.01-0.45-1.01-1.01c0-0.56,0.45-1.01,1.01-1.01c0.56,0,1.01,0.45,1.01,1.01
		C17.54,37.97,17.08,38.42,16.52,38.42z M16.52,37.08c-0.18,0-0.33,0.15-0.33,0.33c0,0.18,0.15,0.33,0.33,0.33s0.33-0.15,0.33-0.33
		C16.85,37.23,16.71,37.08,16.52,37.08z"/>
</g>
<g>
	<path class="st0" d="M5.33,38.05c-0.06-1.13,0.12-2.21,0.51-3.09l-0.41-0.69l-0.39-0.66c-0.05,0.09-0.11,0.18-0.16,0.27
		c-0.65,1.16-0.96,2.67-0.88,4.23c0.07,1.44,0.46,2.74,1.05,3.74l0.4-0.69l0.41-0.71C5.55,39.75,5.37,38.92,5.33,38.05z
		 M12.08,37.71c-0.07-1.35-0.42-2.63-1-3.65l-0.45,0.59l-0.46,0.6c0.33,0.74,0.52,1.61,0.57,2.53c0.06,1.16-0.13,2.26-0.54,3.15
		l0.38,0.73l0.36,0.69c0.08-0.13,0.17-0.26,0.25-0.41C11.85,40.79,12.16,39.28,12.08,37.71z M9.67,41.84
		c-0.41,0.51-0.89,0.8-1.4,0.82c-0.71,0.04-1.41-0.45-1.94-1.26l-0.37,0.64L5.6,42.66C6.32,43.51,7.22,44,8.19,44
		c0.05,0,0.1,0,0.14,0c0.73-0.04,1.41-0.35,1.99-0.91L10,42.47L9.67,41.84z M7.73,31.83c-0.79,0.04-1.51,0.39-2.11,1.02l0.36,0.6
		l0.37,0.62c0.42-0.56,0.92-0.87,1.45-0.9c0.03,0,0.05,0,0.08,0c0.64,0,1.28,0.42,1.81,1.18c0.01,0.01,0.02,0.03,0.03,0.04
		l0.43-0.56l0.42-0.55C9.77,32.29,8.77,31.78,7.73,31.83z"/>
</g>
<g>
	<path class="st2" d="M7.44,37.67l-0.46,0.8c-0.03-0.16-0.04-0.33-0.05-0.5C6.91,37.59,6.94,37.24,7,36.92L7.44,37.67z"/>
	<path class="st2" d="M9.14,37.86c0.02,0.33,0,0.64-0.05,0.92l-0.65-1.24l0-0.01v0l0.54-0.7C9.06,37.13,9.12,37.49,9.14,37.86z"/>
	<path class="st0" d="M7,36.92l-0.47-0.79c-0.21,0.5-0.31,1.15-0.27,1.87c0.03,0.48,0.11,0.92,0.24,1.31l0.49-0.84l0.46-0.8L7,36.92
		z M9.81,37.83c-0.03-0.62-0.16-1.18-0.36-1.63l-0.48,0.63l-0.54,0.7v0l0,0.01l0.65,1.24l0.46,0.88
		C9.75,39.17,9.85,38.53,9.81,37.83z M8.3,39.19c-0.06,0.16-0.13,0.27-0.18,0.32c-0.09-0.08-0.23-0.29-0.34-0.63l-0.42,0.73
		l-0.37,0.64c0.31,0.39,0.7,0.62,1.14,0.62h0.06c0.3-0.01,0.58-0.14,0.81-0.35L8.66,39.9L8.3,39.19z M7.89,34.95
		c-0.3,0.01-0.58,0.14-0.81,0.35l0.35,0.6l0.38,0.64c0.05-0.11,0.1-0.19,0.14-0.23C8,36.35,8.05,36.41,8.1,36.49l0.42-0.55
		l0.42-0.54C8.64,35.1,8.28,34.93,7.89,34.95z"/>
</g>
</svg>
