<?xml version="1.0" encoding="UTF-8"?>
<svg id="Capa_1" data-name="Capa 1" xmlns="http://www.w3.org/2000/svg" viewBox="0 0 451.51 261.92">
  <defs>
    <style>
      .cls-1 {
        fill: #76d6d3;
      }

      .cls-1, .cls-2, .cls-3, .cls-4, .cls-5 {
        stroke-width: 0px;
      }

      .cls-2 {
        fill: #4fb3bf;
      }

      .cls-3 {
        fill: #3bb079;
      }

      .cls-4 {
        fill: #1c5345;
      }

      .cls-5 {
        fill: #fff;
      }
    </style>
  </defs>
  <g>
    <path class="cls-1" d="M152.21,191.37h147.4v2.2c0,7-5.69,12.69-12.69,12.69h-122.02c-7,0-12.69-5.69-12.69-12.69v-2.2h0Z"/>
    <rect class="cls-2" x="211.08" y="206.26" width="30.25" height="13.03"/>
    <path class="cls-2" d="M161.09,105.47h129.65c4.9,0,8.88,3.98,8.88,8.88v77.26h-147.4v-77.26c0-4.9,3.98-8.88,8.88-8.88Z"/>
    <rect class="cls-4" x="158.2" y="111.67" width="136.35" height="74.62"/>
    <path class="cls-1" d="M254.28,223.65h-56.68c0-2.41,1.95-4.36,4.36-4.36h47.96c2.41,0,4.36,1.95,4.36,4.36h0Z"/>
    <rect class="cls-5" x="167.29" y="120.77" width="60.6" height="58.02" rx="3.45" ry="3.45"/>
    <rect class="cls-5" x="238.98" y="121.04" width="44.95" height="32.53" rx="3.57" ry="3.57"/>
    <g>
      <g>
        <rect class="cls-4" x="244.1" y="142.11" width="34.68" height="1.21" rx=".6" ry=".6"/>
        <rect class="cls-4" x="244.1" y="144.95" width="20.57" height="1.21" rx=".6" ry=".6"/>
      </g>
      <circle class="cls-3" cx="249.13" cy="130.97" r="6.18" transform="translate(-19.64 214.52) rotate(-45)"/>
    </g>
    <g>
      <rect class="cls-5" x="239.36" y="161.52" width="26.23" height="1.31" rx=".65" ry=".65"/>
      <rect class="cls-5" x="239.36" y="169.74" width="36.16" height="1.31" rx=".65" ry=".65"/>
      <rect class="cls-5" x="239.36" y="165.61" width="44.33" height="1.31" rx=".65" ry=".65"/>
    </g>
    <g>
      <rect class="cls-4" x="172.82" y="145.69" width="26.23" height="1.11" rx=".56" ry=".56"/>
      <rect class="cls-4" x="172.82" y="152.68" width="36.16" height="1.11" rx=".56" ry=".56"/>
      <rect class="cls-4" x="172.82" y="149.17" width="44.33" height="1.11" rx=".56" ry=".56"/>
    </g>
    <g>
      <rect class="cls-4" x="172.82" y="131.39" width="26.23" height="1.11" rx=".56" ry=".56"/>
      <rect class="cls-4" x="172.82" y="138.38" width="36.16" height="1.11" rx=".56" ry=".56"/>
      <rect class="cls-4" x="172.82" y="134.87" width="44.33" height="1.11" rx=".56" ry=".56"/>
    </g>
  </g>
  <path class="cls-5" d="M127.12,62.77c-.21,0-.42.02-.63.03-1.5-6.34-7.2-11.06-14-11.06-1.61,0-3.16.27-4.61.76-1.84-11.51-11.81-20.31-23.84-20.31s-21.66,8.5-23.74,19.73c-8.01,1.2-14.15,8.1-14.15,16.44,0,8.99,7.14,16.31,16.05,16.61h0s64.92.01,64.92.01c6.14,0,11.11-4.97,11.11-11.11s-4.97-11.11-11.11-11.11Z"/>
  <path class="cls-5" d="M396.7,52.72c-.27,0-.53.03-.8.04-1.89-8-9.08-13.96-17.66-13.96-2.04,0-3.99.34-5.82.96-2.32-14.52-14.9-25.61-30.08-25.61s-27.33,10.73-29.95,24.89c-10.1,1.51-17.85,10.22-17.85,20.74,0,11.34,9,20.57,20.25,20.95v.02h81.89c7.74,0,14.02-6.28,14.02-14.02s-6.28-14.02-14.02-14.02Z"/>
  <path class="cls-5" d="M425.74,217.37c-.23,0-.46.02-.69.04-1.65-6.98-7.92-12.17-15.4-12.17-1.78,0-3.48.3-5.08.84-2.03-12.66-13-22.34-26.23-22.34s-23.83,9.36-26.12,21.71c-8.81,1.32-15.57,8.91-15.57,18.09,0,9.89,7.85,17.94,17.66,18.28v.02h71.43c6.75,0,12.22-5.47,12.22-12.22s-5.47-12.22-12.22-12.22Z"/>
  <path class="cls-5" d="M117.08,219.34c-.27,0-.53.03-.8.04-1.89-8-9.08-13.96-17.66-13.96-2.04,0-3.99.34-5.82.96-2.32-14.52-14.9-25.61-30.08-25.61s-27.33,10.73-29.95,24.89c-10.1,1.51-17.85,10.22-17.85,20.74,0,11.34,9,20.57,20.25,20.95v.02h81.89c7.74,0,14.02-6.28,14.02-14.02s-6.28-14.02-14.02-14.02Z"/>
  <g>
    <path class="cls-5" d="M89.14,95.31c-.25,0-.47-.19-.5-.45-.1-.87-.15-1.55-.18-2-.02-.28.19-.52.46-.54.28-.03.52.19.54.46.03.44.09,1.11.18,1.97.03.27-.17.52-.44.55-.02,0-.04,0-.05,0Z"/>
    <path class="cls-5" d="M139.4,152.28s-.06,0-.1,0c-1.35-.27-2.69-.57-4-.92-.27-.07-.43-.34-.36-.61.07-.27.34-.43.61-.36,1.29.34,2.62.64,3.94.9.27.05.45.32.39.59-.05.24-.26.4-.49.4ZM131.52,150.22c-.05,0-.11,0-.16-.03-1.3-.43-2.6-.91-3.85-1.42-.26-.1-.38-.4-.28-.65.1-.26.4-.38.65-.27,1.23.5,2.51.97,3.79,1.4.26.09.4.37.32.63-.07.21-.27.34-.47.34ZM123.97,147.15c-.07,0-.15-.02-.22-.05-1.23-.6-2.45-1.24-3.63-1.92-.24-.14-.32-.44-.19-.68.14-.24.44-.32.68-.19,1.16.66,2.36,1.3,3.57,1.89.25.12.35.42.23.67-.09.18-.26.28-.45.28ZM116.9,143.11c-.1,0-.19-.03-.28-.08-.87-.58-1.73-1.18-2.55-1.8-.27-.2-.53-.4-.79-.59-.22-.17-.26-.48-.09-.7.17-.22.48-.26.7-.09.25.2.51.39.77.59.81.6,1.66,1.2,2.51,1.77.23.15.29.46.14.69-.1.14-.25.22-.42.22ZM110.45,138.14c-.12,0-.24-.04-.33-.13-1.02-.9-2.02-1.85-2.98-2.83-.19-.2-.19-.51,0-.71.2-.19.51-.19.71,0,.94.96,1.93,1.89,2.93,2.78.21.18.23.5.04.71-.1.11-.24.17-.37.17ZM104.73,132.34c-.14,0-.28-.06-.38-.17-.88-1.03-1.75-2.11-2.57-3.21-.17-.22-.12-.53.1-.7.22-.17.53-.12.7.1.81,1.08,1.66,2.14,2.53,3.16.18.21.16.53-.05.71-.09.08-.21.12-.33.12ZM99.86,125.81c-.16,0-.32-.08-.42-.23-.74-1.14-1.45-2.32-2.12-3.51-.14-.24-.05-.55.19-.68.24-.14.55-.05.68.19.66,1.18,1.37,2.34,2.09,3.46.15.23.08.54-.15.69-.08.05-.18.08-.27.08ZM95.87,118.71c-.19,0-.36-.1-.45-.28-.59-1.22-1.15-2.48-1.68-3.75-.11-.25.02-.55.27-.65.25-.11.55.02.65.27.52,1.25,1.07,2.49,1.65,3.69.12.25.02.55-.23.67-.07.03-.14.05-.22.05ZM92.75,111.18c-.21,0-.4-.13-.47-.34-.45-1.28-.86-2.6-1.24-3.91-.08-.27.08-.54.34-.62.27-.08.54.08.62.34.37,1.3.78,2.6,1.22,3.86.09.26-.05.55-.31.64-.05.02-.11.03-.16.03ZM90.5,103.34c-.23,0-.43-.16-.49-.39-.31-1.34-.58-2.69-.8-4.03-.05-.27.14-.53.41-.58.27-.04.53.14.58.41.22,1.31.49,2.65.79,3.97.06.27-.11.54-.38.6-.04,0-.07.01-.11.01Z"/>
    <path class="cls-5" d="M145.43,153.18s-.03,0-.05,0c-.61-.06-1.28-.14-2-.23-.27-.04-.47-.29-.43-.56.04-.27.29-.47.56-.43.7.09,1.36.17,1.97.23.27.03.48.27.45.55-.03.26-.24.45-.5.45Z"/>
  </g>
  <path class="cls-5" d="M137.14,247.77c-1.19,0-2.32-.06-3.45-.17-.27-.03-.47-.27-.45-.55.03-.27.28-.48.55-.45,1.1.11,2.19.17,3.34.17h.59s0,0,0,0c.27,0,.5.22.5.49,0,.28-.22.5-.49.51h-.61ZM141.72,247.48c-.25,0-.46-.19-.5-.44-.03-.27.16-.52.44-.56,1.3-.16,2.61-.39,3.89-.68.27-.06.54.11.6.38.06.27-.11.54-.38.6-1.31.3-2.66.54-3.99.7-.02,0-.04,0-.06,0ZM149.51,245.69c-.21,0-.4-.13-.47-.34-.09-.26.05-.55.31-.64,1.24-.43,2.47-.93,3.66-1.48.25-.12.55,0,.66.24s0,.55-.24.67c-1.22.57-2.48,1.08-3.75,1.52-.05.02-.11.03-.16.03ZM156.74,242.3c-.17,0-.33-.09-.43-.24-.14-.24-.07-.54.17-.69,1.11-.67,2.21-1.42,3.26-2.22.22-.17.53-.12.7.1.17.22.12.53-.1.7-1.08.82-2.21,1.58-3.35,2.28-.08.05-.17.07-.26.07ZM163.1,237.48c-.13,0-.27-.05-.37-.16-.19-.2-.18-.52.03-.71.96-.89,1.89-1.84,2.76-2.83.18-.21.5-.23.71-.04.21.18.23.5.04.71-.89,1.01-1.84,1.99-2.83,2.9-.1.09-.22.13-.34.13ZM168.39,231.49c-.1,0-.2-.03-.29-.09-.22-.16-.27-.47-.11-.7.76-1.06,1.49-2.17,2.17-3.31.14-.24.45-.31.68-.18.24.14.32.45.18.69-.69,1.17-1.44,2.3-2.22,3.38-.1.14-.25.21-.41.21ZM172.46,224.62c-.07,0-.15-.02-.21-.05-.25-.12-.35-.42-.24-.67.56-1.18,1.08-2.41,1.55-3.64.1-.26.39-.39.64-.29.26.1.39.38.29.64-.47,1.26-1.01,2.52-1.58,3.72-.09.18-.26.29-.45.29ZM175.27,217.13s-.09,0-.13-.02c-.27-.07-.42-.35-.35-.61.23-.85.44-1.68.62-2.53.06-.27.32-.45.59-.39.27.06.44.32.39.59-.18.88-.39,1.73-.63,2.59-.06.22-.26.37-.48.37Z"/>
  <path class="cls-5" d="M256.46,95.37c-.23,0-.43-.15-.49-.38-.15-.65-.45-2.02-.72-3.99-.04-.27.16-.53.43-.56.27-.05.53.16.56.43.26,1.92.55,3.26.7,3.89.06.27-.1.54-.37.6-.04,0-.08.01-.12.01ZM255.37,87.46c-.26,0-.48-.21-.5-.47-.06-1.05-.09-2.11-.09-3.16,0-.29,0-.58,0-.88,0-.28.22-.48.51-.49.28,0,.5.23.49.51,0,.29,0,.58,0,.86,0,1.03.03,2.07.09,3.1.02.28-.19.51-.47.53,0,0-.02,0-.03,0ZM255.5,79.46s-.03,0-.05,0c-.27-.03-.48-.27-.45-.54.12-1.35.3-2.7.53-4,.05-.27.31-.46.58-.41.27.05.45.31.41.58-.22,1.28-.4,2.6-.52,3.93-.02.26-.24.45-.5.45ZM256.87,71.59s-.08,0-.13-.02c-.27-.07-.43-.34-.36-.61.34-1.31.74-2.61,1.19-3.86.09-.26.38-.39.64-.3.26.09.4.38.3.64-.44,1.23-.83,2.5-1.17,3.78-.06.23-.26.37-.48.37ZM259.57,64.07c-.07,0-.14-.01-.21-.05-.25-.12-.36-.41-.24-.67.57-1.22,1.2-2.42,1.88-3.58.14-.24.45-.32.68-.18.24.14.32.45.18.68-.67,1.13-1.28,2.31-1.84,3.5-.08.18-.27.29-.45.29ZM263.63,57.19c-.1,0-.2-.03-.29-.1-.22-.16-.27-.47-.11-.7.77-1.05,1.59-2.09,2.46-3.07l.07-.08c.18-.21.5-.23.71-.05.21.18.23.5.05.71l-.07.08c-.85.96-1.65,1.97-2.4,3-.1.13-.25.21-.4.21ZM268.91,51.2c-.13,0-.27-.05-.36-.16-.19-.2-.18-.52.02-.71.98-.92,2.01-1.8,3.07-2.63.22-.17.53-.13.7.09.17.22.13.53-.09.7-1.04.81-2.05,1.67-3,2.57-.1.09-.22.14-.34.14ZM275.22,46.3c-.17,0-.33-.08-.42-.23-.15-.23-.08-.54.15-.69,1.13-.72,2.31-1.4,3.5-2.02.24-.13.55-.03.67.21.13.25.03.55-.21.67-1.17.61-2.32,1.27-3.42,1.98-.08.05-.18.08-.27.08ZM282.31,42.61c-.2,0-.38-.12-.46-.31-.11-.25.02-.55.27-.65,1.23-.51,2.51-.98,3.8-1.39.27-.08.54.06.63.32s-.06.54-.32.63c-1.26.4-2.51.86-3.72,1.36-.06.03-.13.04-.19.04ZM289.92,40.17c-.23,0-.43-.16-.49-.39-.06-.27.11-.54.38-.6,1.29-.3,2.55-.53,3.85-.71.27-.04.53.15.57.42.04.27-.15.53-.42.57-1.27.18-2.5.41-3.76.7-.04,0-.08.01-.11.01Z"/>
  <path class="cls-5" d="M377.87,172.74c-.2,0-.39-.12-.47-.32-.24-.64-.51-1.33-.82-2.05-.11-.25,0-.55.26-.66.25-.11.55,0,.66.26.32.74.6,1.45.84,2.1.1.26-.03.55-.29.64-.06.02-.12.03-.18.03ZM375.31,167.06c-.18,0-.35-.1-.44-.27-.62-1.17-1.3-2.31-2.01-3.41-.15-.23-.09-.54.15-.69.23-.15.54-.08.69.15.73,1.12,1.42,2.29,2.06,3.48.13.24.04.55-.21.68-.08.04-.16.06-.23.06ZM370.93,160.37c-.15,0-.29-.06-.39-.19-.82-1.03-1.7-2.03-2.61-2.96-.19-.2-.19-.51,0-.71.2-.19.51-.19.71,0,.93.95,1.83,1.98,2.68,3.04.17.22.14.53-.08.7-.09.07-.2.11-.31.11ZM365.35,154.65c-.11,0-.23-.04-.32-.12-.69-.58-1.41-1.13-2.14-1.66-.33-.24-.67-.47-1.02-.71-.23-.15-.29-.46-.14-.69.15-.23.46-.29.69-.14.35.23.7.48,1.04.72.75.54,1.49,1.11,2.2,1.7.21.18.24.49.06.7-.1.12-.24.18-.38.18ZM308.97,153.54c-.17,0-.34-.09-.43-.25-.14-.24-.06-.54.18-.68,1.16-.67,2.35-1.31,3.55-1.91.25-.12.55-.02.67.22.12.25.02.55-.22.67-1.18.59-2.36,1.22-3.49,1.88-.08.05-.17.07-.25.07ZM358.72,150.21c-.08,0-.16-.02-.23-.06-1.15-.61-2.36-1.17-3.58-1.67-.26-.1-.38-.4-.28-.65.1-.26.4-.38.65-.27,1.25.51,2.49,1.08,3.67,1.71.24.13.34.43.21.68-.09.17-.26.27-.44.27ZM316.13,149.97c-.19,0-.38-.11-.46-.31-.11-.25.01-.55.27-.66,1.24-.52,2.51-1.01,3.76-1.45.26-.09.55.05.64.31.09.26-.05.55-.31.64-1.24.43-2.48.91-3.7,1.43-.06.03-.13.04-.19.04ZM323.68,147.34c-.22,0-.42-.15-.48-.37-.07-.27.08-.54.35-.62,1.3-.36,2.62-.67,3.92-.94.27-.05.54.12.59.39.05.27-.12.53-.39.59-1.28.26-2.58.57-3.86.92-.04.01-.09.02-.13.02ZM351.32,147.2s-.09,0-.14-.02c-1.25-.37-2.54-.69-3.84-.95-.27-.05-.45-.32-.39-.59.05-.27.32-.45.59-.39,1.32.27,2.64.59,3.93.97.26.08.42.36.34.62-.06.22-.26.36-.48.36ZM331.51,145.76c-.25,0-.46-.18-.5-.44-.04-.27.16-.52.43-.56,1.33-.17,2.68-.29,4.02-.36.28-.03.51.2.53.47.01.28-.2.51-.47.53-1.31.07-2.64.19-3.95.36-.02,0-.04,0-.06,0ZM343.49,145.63s-.04,0-.06,0c-1.3-.14-2.62-.23-3.95-.27-.28,0-.49-.24-.49-.51s.23-.49.51-.49c1.35.04,2.71.13,4.03.28.27.03.47.28.44.55-.03.26-.25.45-.5.45Z"/>
</svg>