<?xml version="1.0" encoding="utf-8"?>
<!-- Generator: Adobe Illustrator 28.1.0, SVG Export Plug-In . SVG Version: 6.00 Build 0)  -->
<svg version="1.1" id="Capa_1" xmlns="http://www.w3.org/2000/svg" xmlns:xlink="http://www.w3.org/1999/xlink" x="0px" y="0px"
	 viewBox="0 0 416.8 261.9" style="enable-background:new 0 0 416.8 261.9;" xml:space="preserve">
<style type="text/css">
	.st0{fill:#1C5345;}
	.st1{fill:#FFFFFF;}
	.st2{fill:#3BB079;}
	.st3{fill:#4FB3BF;}
	.st4{fill:#00864B;}
	.st5{fill:#C3ECED;}
	.st6{enable-background:new    ;}
</style>
<g>
	<g>
		<path class="st0" d="M140.2,146h22.4v15.7h-22.4v45.5h-17.3V97h45.8v15.7h-28.5V146L140.2,146z"/>
		<path class="st0" d="M231,207.2h-17.5l-3-20h-21.2l-3,20h-15.9L188,97h25.4L231,207.2L231,207.2z M191.5,172.3h16.7l-8.3-55.7
			L191.5,172.3L191.5,172.3z"/>
		<path class="st0" d="M237.5,123.5c0-17.6,9.3-27.7,26.3-27.7s26.3,10.1,26.3,27.7v57.3c0,6.1-1.1,11.3-3.3,15.4
			c0.8,2.1,2,2.4,4.9,2.4h1.6V214h-2.4c-7.7,0-12.6-2.8-15-7.6c-3.5,1.3-7.6,2.1-12.1,2.1c-17,0-26.3-10.1-26.3-27.7L237.5,123.5
			L237.5,123.5z M254.8,181.9c0,7.9,3.5,10.9,9,10.9s9-3,9-10.9v-59.5c0-7.9-3.5-10.9-9-10.9s-9,3-9,10.9V181.9z"/>
	</g>
	<g>
		<path class="st1" d="M202.1,37.2c-5.1,0-9.3,4.2-9.3,9.3l0,0c0,5.2,4.2,9.3,9.3,9.3h55.1V37.2H202.1z"/>
		<path class="st2" d="M297,37.2h-39.7v18.6H297c5.1,0,9.3-4.2,9.3-9.3l0,0C306.3,41.4,302.1,37.2,297,37.2z"/>
		<path class="st3" d="M202.9,43c1.7,0,3.1,1.4,3.1,3.1s-1.4,3.1-3.1,3.1s-3.1-1.4-3.1-3.1S201.2,43,202.9,43 M202.9,41
			c-2.8,0-5.1,2.3-5.1,5.1s2.3,5.1,5.1,5.1s5.1-2.3,5.1-5.1S205.7,41,202.9,41L202.9,41z"/>
		<path class="st3" d="M209,53.1c-0.3,0-0.5-0.1-0.7-0.3l-2.8-2.8c-0.4-0.4-0.4-1,0-1.4s1-0.4,1.4,0l2.8,2.8c0.4,0.4,0.4,1,0,1.4
			C209.5,53,209.2,53.1,209,53.1L209,53.1z"/>
		<g>
			<path class="st1" d="M268.2,42.2c1.3,0,1.9,0.8,1.9,2.1v0.3h-1.2v-0.3c0-0.6-0.2-0.8-0.7-0.8s-0.7,0.2-0.7,0.8
				c0,1.7,2.6,2,2.6,4.5c0,1.3-0.7,2.1-2,2.1s-2-0.8-2-2.1v-0.5h1.2v0.6c0,0.6,0.3,0.8,0.7,0.8s0.7-0.2,0.7-0.8c0-1.7-2.6-2-2.6-4.5
				C266.3,43,266.9,42.2,268.2,42.2L268.2,42.2z"/>
			<path class="st1" d="M272.3,45.9h1.8v1.2h-1.8v2.5h2.3v1.2H271v-8.4h3.6v1.2h-2.3V45.9z"/>
			<path class="st1" d="M279.6,50.7h-1.3l-0.2-1.5h-1.6l-0.2,1.5H275l1.3-8.4h1.9L279.6,50.7L279.6,50.7z M276.6,48h1.3l-0.6-4.2
				L276.6,48L276.6,48z"/>
			<path class="st1" d="M283,50.7c-0.1-0.2-0.1-0.3-0.1-1v-1.3c0-0.8-0.3-1.1-0.9-1.1h-0.5v3.4h-1.3v-8.4h2c1.4,0,2,0.6,2,1.9v0.7
				c0,0.9-0.3,1.4-0.9,1.7c0.7,0.3,0.9,0.9,0.9,1.8v1.3c0,0.4,0,0.7,0.1,1H283L283,50.7z M281.6,43.5v2.6h0.5c0.5,0,0.8-0.2,0.8-0.9
				v-0.8c0-0.6-0.2-0.9-0.7-0.9L281.6,43.5L281.6,43.5z"/>
			<path class="st1" d="M288.9,47.6v1.1c0,1.3-0.7,2.1-2,2.1s-2-0.8-2-2.1v-4.4c0-1.3,0.7-2.1,2-2.1s2,0.8,2,2.1v0.8h-1.2v-0.9
				c0-0.6-0.3-0.8-0.7-0.8s-0.7,0.2-0.7,0.8v4.5c0,0.6,0.3,0.8,0.7,0.8s0.7-0.2,0.7-0.8v-1.2C287.7,47.6,288.9,47.6,288.9,47.6z"/>
			<path class="st1" d="M291,50.7h-1.3v-8.4h1.3v3.6h1.5v-3.6h1.3v8.4h-1.3v-3.6H291V50.7z"/>
		</g>
	</g>
	<g>
		<path class="st1" d="M27.6,43.8h73.5c1.5,0,2.7,1.2,2.7,2.7v40.4c0,1.5-1.2,2.7-2.7,2.7H27.6c-1.5,0-2.6-1.2-2.6-2.7V46.5
			C25,45,26.2,43.8,27.6,43.8z"/>
		<rect x="30.7" y="48.7" class="st4" width="67.4" height="9.8"/>
		<rect x="30.7" y="62.1" class="st3" width="67.4" height="1"/>
		<rect x="30.7" y="65.6" class="st3" width="67.4" height="1"/>
		<rect x="30.7" y="69.1" class="st3" width="67.4" height="1"/>
		<rect x="30.7" y="72.6" class="st3" width="67.4" height="1"/>
		<rect x="30.7" y="76" class="st3" width="67.4" height="1"/>
		<rect x="30.7" y="79.5" class="st3" width="67.4" height="1"/>
		<rect x="30.7" y="83" class="st3" width="67.4" height="1"/>
	</g>
	<g>
		<path class="st1" d="M329.9,190.1h33.2c1.5,0,2.6,1.2,2.6,2.6v43.5c0,1.5-1.2,2.6-2.6,2.6h-33.2c-1.5,0-2.6-1.2-2.6-2.6v-43.5
			C327.2,191.2,328.4,190.1,329.9,190.1z"/>
		<path class="st3" d="M334,190.1v48.8h-4.2c-1.4,0-2.6-1.1-2.6-2.6v-43.6c0-1.4,1.2-2.6,2.6-2.6H334L334,190.1L334,190.1z"/>
		<rect x="336.7" y="198.9" class="st0" width="24.8" height="0.7"/>
		<rect x="336.7" y="202.4" class="st0" width="24.8" height="0.7"/>
		<rect x="336.7" y="206" class="st0" width="24.8" height="0.7"/>
		<rect x="336.7" y="209.6" class="st0" width="24.8" height="0.7"/>
		<rect x="336.7" y="213.1" class="st0" width="24.8" height="0.7"/>
		<rect x="336.7" y="216.7" class="st0" width="24.8" height="0.7"/>
		<rect x="336.7" y="220.3" class="st0" width="24.8" height="0.7"/>
		<rect x="336.7" y="223.9" class="st0" width="24.8" height="0.7"/>
		<rect x="336.7" y="227.4" class="st0" width="24.8" height="0.7"/>
		<rect x="336.7" y="231" class="st0" width="24.8" height="0.7"/>
	</g>
	<g>
		<g>
			<path class="st5" d="M341.3,90.9h11c8.9,0,16.2,7.2,16.2,16.2v11c0,8.9-7.2,16.2-16.2,16.2h-11c-8.9,0-16.2-7.2-16.2-16.2v-11
				C325.1,98.1,332.4,90.9,341.3,90.9z"/>
			<path class="st3" d="M360.9,130.2l1.4-1.4c1.1-1.1,2.9-1.1,4,0l7.1,7.1c1.1,1.1,1.1,2.9,0,4l-1.4,1.4c-1.1,1.1-2.9,1.1-4,0
				l-7.1-7.1C359.8,133,359.8,131.3,360.9,130.2z"/>
			<path class="st3" d="M367.1,137l2-2c1.6-1.6,4.3-1.6,6,0l14.7,14.7c1.6,1.6,1.6,4.3,0,6l-2,2c-1.6,1.6-4.3,1.6-6,0L367.1,143
				C365.4,141.3,365.4,138.6,367.1,137z"/>
			<path class="st3" d="M346.8,85.7c-14.9,0-26.9,12-26.9,26.9s12,26.9,26.9,26.9s26.9-12,26.9-26.9S361.7,85.7,346.8,85.7z
				 M346.8,131.5c-10.5,0-19-8.5-19-19s8.5-19,19-19s19,8.5,19,19S357.3,131.5,346.8,131.5z"/>
		</g>
		<g>
			<path class="st1" d="M352.8,77.6c-0.3-0.2-0.5-0.4-0.6-0.8l-2.5-15.5c-0.1-0.6,0.3-1.2,0.9-1.3c0.6-0.1,1.2,0.3,1.3,0.9l2.5,15.5
				c0.1,0.6-0.3,1.2-0.9,1.3C353.2,77.8,353,77.7,352.8,77.6z"/>
			<path class="st1" d="M376,89.8c-0.2-0.1-0.4-0.3-0.5-0.5c-0.3-0.6,0-1.2,0.5-1.5l14.2-6.7c0.5-0.3,1.2,0,1.5,0.5s0,1.2-0.5,1.5
				L377,89.8C376.6,90,376.2,89.9,376,89.8L376,89.8z"/>
			<path class="st1" d="M366.3,79.9c-0.5-0.3-0.8-1-0.5-1.5l6.9-13.1c0.3-0.5,1-0.8,1.5-0.5s0.8,1,0.5,1.5l-6.9,13.1
				C367.5,80,366.9,80.2,366.3,79.9z"/>
		</g>
	</g>
	<path class="st1" d="M116,53.3c-0.2-0.5-0.3-1.1-0.3-1.8c0-6.5,5.1-7.2,5.1-14.6c0-2.1-0.9-3-2.4-3s-2.4,0.8-2.4,3v3.2h-4.4v-3
		c0-4.8,2.4-7.5,6.9-7.5s6.9,2.7,6.9,7.5c0,7.8-5.6,9-5.6,14.5c0,0.6,0,1.1,0.2,1.7L116,53.3L116,53.3z M120.3,55.4V60h-4.5v-4.5
		H120.3z"/>
	<path class="st1" d="M317.8,34.2c-0.1-0.4-0.2-0.9-0.2-1.5c0-5.3,4.2-5.8,4.2-11.8c0-1.7-0.7-2.4-1.9-2.4s-1.9,0.7-1.9,2.4v2.6
		h-3.6v-2.4c0-3.9,1.9-6.1,5.6-6.1s5.6,2.2,5.6,6.1c0,6.3-4.5,7.3-4.5,11.7c0,0.5,0,0.9,0.1,1.3L317.8,34.2L317.8,34.2z M321.3,35.9
		v3.7h-3.7v-3.7H321.3z"/>
	<g>
		<g>
			<path class="st2" d="M96.4,188.3H56c-1.9,0-3.4,1.5-3.4,3.4v40.5c0,1.9,1.5,3.4,3.4,3.4h13.7l2.8,4.8l3.8,6.5l3.8-6.5l2.8-4.8
				h13.7c1.9,0,3.4-1.5,3.4-3.4v-40.5C99.9,189.9,98.3,188.3,96.4,188.3L96.4,188.3z"/>
			<path class="st1" d="M74.8,219.1c-0.2-0.5-0.2-1-0.2-1.7c0-6,4.7-6.5,4.7-13.3c0-1.9-0.8-2.7-2.2-2.7s-2.2,0.7-2.2,2.7v3h-4.1
				v-2.7c0-4.4,2.2-6.9,6.3-6.9s6.3,2.5,6.3,6.9c0,7.1-5.1,8.2-5.1,13.2c0,0.5,0,1,0.2,1.5L74.8,219.1L74.8,219.1z M78.7,221v4.1
				h-4.1V221H78.7z"/>
			<path class="st1" d="M87.2,225.6l-0.5,2.1l-2.1-0.5l0.5-2.1L87.2,225.6z M85.5,224.2c0-0.2,0-0.5,0.1-0.9c0.7-3,3.2-2.7,4-6.1
				c0.2-1-0.1-1.4-0.7-1.6c-0.7-0.2-1.2,0.1-1.4,1.1l-0.4,1.5l-2-0.5l0.3-1.3c0.5-2.2,1.9-3.2,4-2.6c2.1,0.5,2.8,2,2.3,4.2
				c-0.9,3.5-3.6,3.5-4.2,5.9c-0.1,0.2-0.1,0.5-0.1,0.8L85.5,224.2L85.5,224.2z"/>
			<path class="st1" d="M64.2,219.1c-0.1-0.2-0.2-0.4-0.3-0.8c-0.8-3,1.4-3.9,0.5-7.2c-0.3-1-0.8-1.2-1.4-1c-0.7,0.2-1,0.7-0.7,1.6
				l0.4,1.5l-2,0.6l-0.4-1.3c-0.6-2.2,0.1-3.7,2.2-4.3c2.1-0.6,3.5,0.4,4.1,2.5c1,3.5-1.4,4.8-0.7,7.2c0.1,0.2,0.2,0.5,0.3,0.7
				L64.2,219.1L64.2,219.1z M66.4,219.5l0.6,2.1l-2.1,0.6l-0.6-2.1L66.4,219.5z"/>
		</g>
		<g>
			<path class="st1" d="M41.9,191.3c-0.2,0.2-0.4,0.3-0.7,0.2L29.6,190c-0.5-0.1-0.8-0.5-0.7-0.9c0.1-0.4,0.5-0.8,0.9-0.7l11.6,1.6
				c0.5,0.1,0.8,0.5,0.7,0.9C42.1,191.1,42,191.2,41.9,191.3L41.9,191.3z"/>
			<path class="st1" d="M55.7,177.6c-0.1,0.1-0.3,0.2-0.5,0.2c-0.5,0.1-0.9-0.2-0.9-0.7l-1.6-11.6c-0.1-0.4,0.2-0.9,0.7-0.9
				c0.5-0.1,0.9,0.2,0.9,0.7l1.6,11.6C56,177.1,55.9,177.4,55.7,177.6L55.7,177.6z"/>
			<path class="st1" d="M46.6,182.2c-0.3,0.3-0.8,0.3-1.2,0l-7.8-7.8c-0.3-0.3-0.3-0.9,0-1.2s0.8-0.3,1.2,0l7.8,7.8
				C46.9,181.4,46.9,181.9,46.6,182.2z"/>
		</g>
	</g>
</g>
<g class="st6">
	<path class="st1" d="M143.9,141.9h22.6v15.9h-22.6v46.1h-17.5V92.3h46.4v15.9h-28.8V141.9z"/>
</g>
<g class="st6">
	<path class="st1" d="M235.8,203.9h-17.7l-3-20.2h-21.5l-3,20.2h-16.1l17.8-111.5H218L235.8,203.9z M195.8,168.5h16.9l-8.4-56.4
		L195.8,168.5z"/>
</g>
<g class="st6">
	<path class="st1" d="M242.4,119.1c0-17.8,9.4-28,26.6-28c17.2,0,26.6,10.2,26.6,28v58c0,6.2-1.1,11.5-3.3,15.6
		c0.8,2.1,2.1,2.4,4.9,2.4h1.6v15.6h-2.4c-7.8,0-12.7-2.9-15.1-7.6c-3.5,1.3-7.6,2.1-12.3,2.1c-17.2,0-26.6-10.2-26.6-28V119.1z
		 M259.9,178.2c0,8,3.5,11,9.1,11s9.1-3,9.1-11V118c0-8-3.5-11-9.1-11s-9.1,3-9.1,11V178.2z"/>
</g>
</svg>
