<?xml version="1.0" encoding="UTF-8"?>
<svg id="Capa_1" data-name="Capa 1" xmlns="http://www.w3.org/2000/svg" viewBox="0 0 310.59 261.92">
  <defs>
    <style>
      .cls-1 {
        fill: none;
        stroke: #fff;
        stroke-dasharray: 0 4;
        stroke-miterlimit: 10;
        stroke-width: .5px;
      }

      .cls-2 {
        fill: #4fb3bf;
      }

      .cls-2, .cls-3, .cls-4, .cls-5 {
        stroke-width: 0px;
      }

      .cls-3 {
        fill: #1c5345;
      }

      .cls-4 {
        fill: #fff;
      }

      .cls-5 {
        fill: #00864b;
      }
    </style>
  </defs>
  <g>
    <g>
      <circle class="cls-2" cx="171.22" cy="132.15" r="91.16"/>
      <g>
        <path class="cls-3" d="M232.91,66.73c-.58-.47-1.25-.4-1.86.08-.21.17-.42.34-.64.51-.13.1-.29.22-.45.15-.7-.32-1.51-.24-2.2-.57-1.29-.62-2.69-.83-4.06-1.16-.65-.16-1.29-.38-1.92-.64-.66-.28-1.28-.71-2.03-.8-1.05-.12-2.11-.24-2.89-.2-.88,0-1.48,0-2.08,0-.24,0-.53-.04-.7.14-.61.65-1.45.53-2.2.67-.21.04-.43,0-.62.14-1.1.87-2.26,1.68-3.16,2.78-.1.12-.23.23-.36.33-.68.58-1.37,1.16-1.88,1.91-.2.29-.47.53-.76.73-.61.42-1.22.83-1.92,1.06-.61.2-1.01.73-1.6.95-1.33.49-1.28.45-1.2,2.07.02.37.18.74.28,1.1.06.24.14.47.19.71.13.69.57,1.11,1.25,1.15.56.04,1.08-.09,1.53-.44.19-.15.38-.31.57-.46.27-.19.5-.21.8.01.74.54,1.21,1.32,1.77,2.01.25.31.15.61-.19.82-.23.14-.46.29-.67.46-.17.13-.17.33-.11.53.06.21.23.34.43.3.74-.15,1.53-.14,2.19-.57.33-.22.64-.41,1.05-.39.41.02.58-.23.68-.57.15-.52.33-1.04.32-1.59,0-.4.13-.68.54-.8.18-.05.35-.15.5-.26.84-.6.88-1.18.15-1.88-.1-.09-.2-.18-.31-.27-.83-.69-.73-1.64.21-2.15.24-.13.48-.26.72-.39.67-.38,1.27-.81,1.59-1.57.19-.47.61-.77,1.15-.8.35-.02.71.01,1.06.02.14,0,.28.04.35.17.1.2-.08.29-.2.39-.54.45-1.01.98-1.66,1.31-.63.32-1.09.8-.96,1.63.18,1.18.61,2.13,1.87,2.47.05.01.11.02.16.05.49.21.76.62.72,1.07-.05.59-.28.94-.87,1.01-.78.1-1.14.54-1.27,1.26-.03.19-.07.37-.11.56-.24,1.06-.85,1.61-1.8,1.5-.27-.03-.54.05-.81.07-.94.07-1.76.54-2.65.78-.24.07-.46.17-.65-.09-.52-.71-1.16-.7-1.87-.3-.26.15-.52.21-.84.05-.71-.36-.92-.65-.67-1.42.17-.52.15-1.02.09-1.53-.03-.29-.2-.51-.54-.49-.52.03-1.19.62-1.37,1.14-.22.63-.24,1.27-.17,1.91.05.44-.11.73-.52.9-.4.17-.78.39-1.19.54-.64.23-1.2.61-1.55,1.15-.47.74-1.22,1.06-1.9,1.48-.33.21-.65.37-.79.76-.23.63-.93.59-1.37.93-.25.19-.51,0-.77-.08-.38-.12-.82-.18-1.03.22-.33.61-.85.7-1.45.7-.38,0-.76.04-1.12.18-.16.06-.31.13-.32.33-.01.29.45.92.77.94,1.1.07,1.65.86,2.21,1.63.35.49.46,1.03.22,1.62-.11.28-.16.57-.2.87-.1.72-.24.82-.95.81-.19,0-.38,0-.57-.03-1.45-.23-2.91-.19-4.37-.31-.16-.01-.33,0-.47.1-.54.38-1.31.59-.97,1.56.13.36-.19.8-.07,1.21.14.48,0,.91-.14,1.35-.13.4-.37.73-.54,1.1-.09.19-.27.44-.09.61.46.44.36,1,.37,1.53,0,.42.22.59.61.59.14,0,.28.02.41,0,.69-.11,1.26.09,1.8.55.42.36,1,.55,1.52.3.42-.2.83-.28,1.26-.23,1.12.14,1.85-.59,2.54-1.23.33-.31.48-.88.81-1.27.07-.08.06-.29,0-.39-.2-.37,0-.62.2-.88.21-.28.44-.56.62-.86.21-.35.46-.55.89-.61.59-.09.99-.55,1.41-.93.3-.26.18-.66.2-1.01.04-.63.46-1.01,1.15-.96.4.03.79.17,1.19.25.26.05.56.23.79.08.54-.36,1.15-.58,1.68-.93.66-.43.74-.47,1.32.01.21.18.38.39.49.64.2.47.53.81.9,1.14.79.71,1.63,1.34,2.63,1.75.73.3,1.21.91,1.7,1.48.44.51.1,1.23-.56,1.43-.67.2-1.35.14-2.02.14-.23,0-.46.04-.54.28-.08.26.12.4.31.51.59.34,1.22.59,1.81.94.37.23.73.02.73-.43,0-.54.24-.79.71-.93.58-.17.69-.71.93-1.16.18-.34.07-.6-.08-.91-.17-.35.03-.56.42-.55.27.01.43.22.65.31.29.12.47,0,.48-.32.01-.35-.22-.55-.47-.72-.58-.4-1.19-.77-1.76-1.17-.27-.19-.52-.33-.85-.43-.57-.17-1.14-.46-1.38-1.04-.19-.45-.46-.79-.83-1.07-.13-.1-.25-.22-.33-.36-.19-.32-.15-.86.09-1.06.27-.24.61-.35.89-.11.51.43,1.15.72,1.51,1.34.25.44.7.7,1.18.81.34.08.6.23.83.48.17.19.36.33.58.44.92.48,1.3,1.27,1.32,2.27,0,.24-.05.5.12.71.62.73.88,1.69,1.6,2.35.24.21.36.52.36.8,0,.81.57.97,1.17,1.11.48.11.62.03.8-.44.38-1.01.77-2.03.26-3.11-.02-.05-.02-.11-.03-.16-.05-.48.41-1.23.79-1.29.71-.1,1.42.41,1.47,1.06.03.33.04.65.03.98-.03.68.19,1.3.55,1.85.32.47.72.87,1.39.85.53-.02,1.02.21,1.48.43.39.18.71.26,1.04-.05.23-.22.47-.2.75-.12.39.11.78.22,1.15.4.53.27,1.08.3,1.61-.07.18-.12.38-.22.59-.27.55-.13,1.15.19,1.2.7.06.62.19,1.28-.05,1.86-.22.56-.41,1.11-.53,1.7-.1.48-.22.96-.43,1.39-.27.55-.28,1.08-.12,1.66.2.71.54,1.36.82,2.03.47,1.15,1.08,2.19,1.84,3.15.34.43.63.89.8,1.42.1.3.27.53.53.7.51.35.81.86,1.11,1.39.3.54.35,1.14.48,1.72.17.78.47,1.44,1.22,1.83.21.11.41.29.54.48.73,1.04,1.4,2.15,1.81,3.33.45,1.29,1.14,2.45,1.6,3.72.17.46.55.8,1.02,1.01.43.2.72-.1,1.04-.29.07-.04.16-.05.23-.07,1.47-.55,2.95-1.07,4.32-1.86.26-.15.57-.18.86-.25.6-.14,1.13-.39,1.43-.97.18-.35.49-.62.81-.78.91-.46,1.83-.89,2.68-1.48.97-.67,1.98-1.24,2.23-2.53.05-.27.22-.49.37-.72.4-.61.81-1.22,1.01-1.95.08-.28.13-.52-.07-.77-.31-.38-.6-.77-.92-1.15-.23-.28-.52-.5-.91-.44-.48.07-.76-.18-.99-.55-.11-.18-.26-.35-.39-.53-.68-1-1.4-1.05-2.11-.11-.22.29-.47.55-.82.63-.64.16-1.3.11-1.95.03-.23-.03-.4-.17-.33-.46.32-1.31-.41-2.03-1.45-2.58-1.07-.57-1.84-1.42-2.25-2.56-.24-.66.31-1.24.99-1.15.96.13,1.34.85,1.61,1.64.13.37.2.8.56.95.97.42,1.73,1.19,2.8,1.47.55.14,1.03.27,1.56.04.2-.09.4-.14.6-.25.41-.22.54-.17.76.25.06.12.12.25.15.38.15.5.47.75.99.84.7.11,1.38.3,2.07.42,1.45.26,2.9.4,4.37.06.31-.07.62-.11.93-.14-3.42-19-12.72-35.95-25.96-48.91-.11.03-.21.05-.32.08-.66.16-1.21.08-1.75-.35Z"/>
        <path class="cls-5" d="M247.11,131.49c-.66.41-1.41.37-2.11.55-1.15.3-2.25.77-3.43.97-.88.15-1.86-.39-1.89-1.22-.02-.68-.37-1.11-.77-1.55-.4-.44-.84-.86-1.18-1.34-.28-.39-.57-.66-1.05-.82-.98-.32-1.55-1-1.61-2.1-.04-.66-.32-1.26-.78-1.76-.77-.84-1.29-1.76-1.39-2.95-.07-.79-.37-1.59-.93-2.22-.66-.73-1.22-1.52-1.55-2.46-.12-.36-.34-.69-.46-1.04-.34-.97-1.21-1.69-1.08-2.89.07-.68-.34-1.41-.47-2.13-.2-1.1-1.04-1.62-1.89-2.1-.69-.39-1.38-.17-1.98.28-.4.3-.76.35-1.21.11-.31-.17-.67-.21-1.01-.29-1.05-.24-2.14-.37-3.14-.85-.45-.22-.94-.31-1.37-.66-.42-.35-1.01-.37-1.57-.25-.21.05-.41.14-.63.16-.53.03-.77.47-1.07.81-.26.3-.11.59,0,.92.17.51-.09.84-.63.88-.32.02-.58-.11-.81-.31-.51-.44-1.11-.68-1.79-.69-.52,0-.9-.21-1.04-.73-.2-.73-.77-.94-1.42-1.03-.29-.04-.6-.04-.9,0-.73.09-1.34-.22-1.92-.57-.62-.38-.76-1-.41-1.65.13-.25.22-.5.2-.78-.03-.43-.04-.86.04-1.3.08-.45-.19-.85-.61-.92-.43-.07-.89-.14-1.29.06-.35.17-.67.14-1.02.15-.77.02-1.59-.21-2.3.29-.17.12-.36.07-.54-.01-.47-.22-.94-.15-1.44-.07-.9.16-1.79.45-2.73.4-.47-.03-.89.22-1.2.6-.14.17-.3.29-.51.38-.96.4-1.99.52-3.01.63-.5.06-1,.06-1.46-.33-.38-.32-.9-.12-1.17.32-.17.28-.39.54-.5.84-.19.53-.57.81-1.04,1.07-1.14.64-2.01,1.56-2.36,2.84-.21.79-.56,1.48-1.06,2.09-.56.68-1.05,1.46-2,1.7-.32.08-.53.31-.68.65-.17.39-.37.9-.7,1.07-.68.35-.88.91-1.04,1.55-.05.21-.15.41-.26.6-.52.92-1.16,1.75-1.62,2.71-.47,1-.66,1.89-.25,2.94.41,1.05.76,2.14.35,3.3-.06.18-.07.37-.1.56-.06.42-.25.75-.56,1.05-.47.45-.7,1.01-.69,1.68,0,1.25.53,2.31,1.21,3.31.21.31.58.39.84.63.48.42.77.99,1.23,1.4.31.28.54.6.66,1.01.45,1.56,1.41,2.75,2.77,3.58.79.49,1.53,1.03,2.23,1.63.71.62,1.46.79,2.32.3.21-.12.45-.19.68-.27.88-.27,1.72-.52,2.69-.22.6.19,1.26.46,1.98.14.87-.38,1.77-.71,2.62-1.11.85-.41,1.68-.55,2.58-.55,1.06,0,1.68.44,2.02,1.44.32.94.56,1.08,1.57.91.74-.12,1.45-.06,2.12.32.85.48.99.79.82,1.78-.09.51-.37.98-.34,1.5.04.7-.1,1.35-.37,1.99-.1.25-.21.52-.08.79.2.42.31.87.61,1.24.57.69,1.1,1.42,1.68,2.1.48.57.84,1.18.93,1.94.06.48.26.93.53,1.35.3.47.48.98.45,1.54-.06.98.19,1.88.57,2.77.45,1.05.37,2.01-.5,2.84-.37.35-.56.77-.64,1.28-.12.8-.44,1.57-.64,2.35-.19.75-.19,1.55-.24,2.34-.02.27.13.53.29.75.37.51.59,1.1.84,1.67.33.77.57,1.6,1.17,2.23.54.56.66,1.21.6,1.95-.04.51-.11,1.04.06,1.54.18.52.24,1.06.27,1.6.05.86.2,1.78.8,2.35,1.04.99,1.56,2.16,1.83,3.51,0,.03.01.05.03.08.27.49.36,1.02.29,1.77-.2.56.29,1.18.39,1.87.01.1.08.23.16.27.55.27,1.07.69,1.74.59,1.04-.16,2.11-.13,3.11-.55.12-.05.27-.07.4-.07,1.05.04,2.02-.25,3.01-.57,1-.33,1.78-.88,2.44-1.67.24-.29.48-.6.78-.83.51-.4.85-.91,1.14-1.47.28-.56.63-1.11,1.12-1.49.57-.45.85-1.04,1.07-1.68.09-.28.22-.57.26-.86.14-1.07.75-1.76,1.68-2.24.36-.19.7-.46.84-.86.39-1.08.69-2.18.25-3.33-.08-.2-.13-.42-.17-.63-.18-.98.13-1.78.93-2.36.34-.25.61-.55.85-.87.25-.34.55-.58.94-.74.94-.39,1.78-.95,2.43-1.74.62-.76,1-1.58.87-2.62-.09-.75-.07-1.5.07-2.27.15-.85.17-1.71-.42-2.49-.39-.51-.7-1.14-.67-1.8.05-1.1-.11-2.16-.35-3.23-.1-.43-.05-.88.23-1.24.19-.24.3-.52.41-.79.44-1.05.9-2.1,1.86-2.81.17-.13.29-.32.42-.5.5-.68.96-1.39,1.5-2.03.49-.58.95-1.23,1.65-1.56,1.66-.79,2.71-2.18,3.53-3.72.92-1.72,1.67-3.54,2.49-5.31.08-.17.07-.37.13-.55.24-.74-.06-1.51.12-2.27.07-.29-.38-.67-.65-.51Z"/>
        <path class="cls-5" d="M83.24,115.2c-.05.43.12.73.47.96.67.46,1.12,1.1,1.48,1.82.22.44.43.87.71,1.28.4.58.41,1.22.13,1.86-.44.98-.08,1.94.9,2.42.1.05.22.08.28.16.43.66,1.07.97,1.8,1.18.12.03.24.14.32.24.37.42.85.68,1.35.89,1.03.43,2.07.84,3.11,1.24.47.18.95.2,1.44.04.26-.09.53-.13.78-.23.37-.14.7-.05,1,.16.24.17.49.34.67.59,1.22,1.77,3.07,2.4,5.06,2.74.49.09.89.35,1.12.75.29.48.58.97.66,1.56.11.86.5,1.51,1.4,1.83.5.18.97.48,1.21,1.03.19.44.58.65,1.04.69.54.05.99.21,1.34.66.24.3.6.23.91.15.29-.07.33-.33.31-.59-.02-.23.03-.42.16-.61.17-.24.22-.53.05-.77-.18-.25-.52-.19-.76-.12-.68.2-1.22-.03-1.72-.47-.16-.14-.32-.29-.49-.43-.7-.54-.86-1.32-.59-2.06.37-1,.28-2.11.81-3.06.17-.3.07-.7.05-1.05,0-.18-.13-.28-.26-.39-.81-.65-1.72-.89-2.74-.71-.38.07-.76.01-1.14,0-.32,0-.49-.17-.59-.46-.19-.58-.12-1.14.22-1.62.38-.54.64-1.13.89-1.73.29-.71.18-1.55.8-2.18.27-.27-.01-.65-.45-.74-1.08-.22-2.09.07-3.09.44-.31.12-.47.33-.51.67-.06.57-.28,1.1-.52,1.62-.3.65-.63.87-1.34.8-.57-.05-1.13-.05-1.7.04-1.03.17-2.04-.54-2.54-1.48-.57-1.07-.49-2.2-.57-3.32-.01-.16.04-.32.06-.48.1-.99.49-1.89.9-2.78.21-.45.37-.9.34-1.41-.03-.55.16-1.03.62-1.35.53-.37,1.02-.8,1.63-1.06.57-.24,1.15-.49,1.67-.84.47-.32.96-.35,1.54-.15.95.33,1.97.32,2.96.46.26.04.37-.13.51-.32.24-.33.51-.65.94-.74.5-.11,1-.25,1.51-.33.48-.08.95,0,1.2.48.2.39.46.46.86.4.93-.13,1.43.39,1.31,1.32-.05.36-.03.7.05,1.05.19.86.48,1.66.99,2.4.36.53.61.6,1.08.17.5-.46.76-1.03.8-1.73.05-.86-.21-1.67-.4-2.49-.39-1.63.08-2.97,1.39-3.96,1.08-.81,2.21-1.56,3.43-2.16.69-.34,1.38-.61,1.81-1.37.27-.46.61-.9.74-1.42.19-.8.6-1.46,1.11-2.06.61-.72,1.25-1.43,1.89-2.13.71-.78,1.49-1.32,2.54-1.44.5-.06.93-.3,1.38-.48.31-.13.49-.35.45-.7-.05-.46.2-.76.51-1.05.47-.44,1.12-.57,1.6-.91.65-.47,1.28-.34,1.94-.36.34-.01.58.14.73.51.19.49.56.54.96.2.25-.21.46-.46.7-.69.18-.17.36-.38.62-.35.81.08,1.51-.42,2.31-.39.18,0,.38-.06.56-.12.42-.14.52-.58.21-.9-.14-.14-.31-.21-.51-.23-.3-.04-.59-.1-.88-.16-.84-.17-1.19-.71-.98-1.54.09-.38.26-.73.56-.98.45-.37.61-.83.48-1.38-.09-.37.11-.5.37-.61.62-.26,1.28-.31,1.93-.21.79.12,1.55.15,2.33-.11.42-.14.73.27.54.69-.14.32-.37.6-.64.84-.35.3-.49.7-.64,1.11-.12.33-.08.51.3.58.51.09,1.01.18,1.54.06.54-.13,1.1-.14,1.58.19.47.32,1.02.38,1.54.49.75.16,1.29-.51,1.01-1.24-.17-.45-.22-.89,0-1.34.34-.69.33-.7-.36-.98-.58-.23-.7-.5-.67-1.11.05-.83.5-1.54.61-2.35.06-.49.04-.85-.38-1.14-.18-.13-.36-.26-.34-.52.04-.46-.29-.63-.64-.72-.91-.23-1.15-.91-1.19-1.72-.02-.49,0-.98,0-1.47-.02-.84-.27-1.6-.81-2.26-.41-.5-.55-.53-1.07-.13-.65.5-1.32.95-2.02,1.37-.47.28-.98.24-1.36-.08-.35-.3-.38-.61-.14-1.18.05-.13.12-.24.18-.37.22-.5.2-.72-.24-.95-.4-.22-.67-.53-.98-.84-.29-.3-.6-.66-1.06-.72-.86-.11-1.73-.19-2.6-.2-.32,0-.61.09-.83.3-.55.52-.76,1.26-1.16,1.88.11.97-.45,1.45-1.27,1.74-.08.03-.16.05-.23.09-.42.24-.46.45-.17.84.48.65.49.83.06,1.52-.29.47-.69.81-1.16,1.12-.72.46-1.57.61-2.32,1-.35.18-.61.37-.58.79.04.67-.43,1.22-.42,1.9,0,.26-.27.46-.52.59-.21.12-.44.22-.66.33-.55.27-.85.17-1.09-.38-.19-.44-.24-.88.05-1.32.34-.52.52-1.14.95-1.61.2-.22.1-.42-.15-.51-.44-.15-.89-.25-1.36-.25-.98,0-1.83-.49-2.48-1.1-.61-.58-1.26-.93-2.02-1.12-.45-.11-.63-.35-.71-.77-.06-.32-.04-.66-.24-.94-.31-.42-.12-.76.16-1.09.34-.41.79-.66,1.2-.98,1.11-.86,2.32-1.52,3.74-1.7.72-.09,1.27-.48,1.77-.94.34-.32.72-.46,1.17-.49.74-.06,1.41.11,1.96.61.28.25.52.23.81.08.41-.21.82-.42,1.23-.64.29-.15.55-.17.84.03.25.17.52.29.84.27.24-.01.43-.09.53-.32.09-.21,0-.38-.16-.5-.3-.23-.43-.54-.53-.89-.18-.65-.06-.87.61-.91.46-.03.84-.2,1.19-.46.6-.44,1.32-.75,1.66-1.5.08-.19.3-.31.45-.47.21-.21.42-.42.56-.7.25-.5.69-.68,1.22-.6.41.06.81.05,1.22.04.59-.01,1.15.15,1.51.64.23.32.48.55.84.73.52.27.56.61.11,1.02-.34.31-.72.58-1.14.79-.24.12-.53.22-.61.51-.14.51-.54.56-.95.61-.47.06-.92-.04-1.36-.18-.71-.22-1.46.17-1.7.85-.1.29-.03.48.31.51.89.08,1.78.29,2.68.08.35-.08.59.05.77.31.14.2.27.42.33.65.14.54.53.8,1,.98.53.2,1.07.4,1.6.61.49.19.9.17,1.36-.18.49-.38.95-.8,1.49-1.13.7-.43.82-1.11.44-1.84-.12-.24-.25-.48-.36-.73-.08-.18-.12-.38.08-.51.18-.11.36-.03.53.09.32.23.48.59.75.86.44.42.81.45,1.3.08.37-.28.73-.57,1.08-.86.51-.41.57-.65.34-1.28-.12-.34-.31-.62-.65-.79-.78-.39-1.31-.96-1.2-1.92.05-.46-.18-.77-.51-1.05-.54-.45-1.16-.7-1.84-.83-.76-.14-1.3-.58-1.54-1.3-.16-.46-.45-.64-.88-.74-1.1-.26-2.23-.25-3.33-.12-.76.09-1.51.14-2.27.15-.52,0-1.04-.04-1.55.01-.51.05-1.04.06-1.48.39-.52.39-1.05.78-1.54,1.21-.64.54-.69.78-.41,1.57.06.18.18.35.07.54-.2.38-.52.63-.96.67-.41.03-.83.03-1.08-.4-.27-.48-.46-.98-.53-1.53-.06-.5-.43-.81-.81-.71-.65.18-1.33.34-1.88.75-.6.44-1.23.88-.93,1.85.17.55-.01.65-.5.96-.39.24-.74.12-1.1.04-.6-.13-1.22-.2-1.76,0-.43.17-.83.22-1.26.22-.49,0-.97.02-1.46.1-.68.11-1.34.07-1.88-.51-.35-.38-.89-.48-1.36-.39-.85.17-1.72.24-2.56.48-1.31.36-2.62.56-3.8-.42-.24-.2-.53-.26-.82-.26-12.93,12.32-22.23,28.4-26.18,46.48.47.66.57,1.52,1.04,2.18.07.09.05.27.04.4Z"/>
        <path class="cls-5" d="M82.53,118.24c.13-.36.03-.69-.21-.99-.31-.38-.47-.81-.63-1.28-.05-.14-.08-.29-.11-.43-.14.76-.27,1.52-.39,2.28.18.2.35.4.53.6.28.33.68.23.82-.18Z"/>
        <path class="cls-3" d="M156.47,151.65c-.77-.1-1.37-.49-1.86-1.07-.19-.23-.41-.45-.64-.63-.67-.52-1.36-1.03-2.3-.81-1.22.21-2.27-.4-3.22-.95-1.59-.93-3.32-1.5-4.98-2.23-.75-.33-1.14-.77-1.33-1.49-.07-.26-.06-.55-.25-.76-.47-.53-.66-1.16-.8-1.84-.1-.47-.2-1-.65-1.28-.45-.28-.8-.65-1.14-1.04-.13-.14-.26-.28-.46-.33-.89-.21-1.73-.62-2.7-.53-1.28.12-2.17-.56-2.79-1.61-.36-.61-.78-1.11-1.48-1.32-.46-.14-.69-.51-.83-.94-.1-.31.11-.57.18-.86.07-.32.19-.67-.21-.85-.37-.16-.76-.36-1.17-.24-.48.15-.97.14-1.45.14-.36,0-.69.05-.99.3-.47.39-1.03.41-1.52.11-.42-.25-.86-.33-1.31-.38-.51-.05-.95-.24-1.34-.55-.56-.43-1.23-.68-1.85-1-.46-.24-1.05-.24-1.58-.32-.21-.03-.42,0-.59.19-.53.59-1.23.81-2,.98-.9.2-1.72.59-1.97,1.68-.17.77-1.19,1.29-1.99,1.13-.3-.06-.6-.06-.89-.03-.14.01-.29.07-.3.22-.02.33-.22.72.22.94.18.09.23.22.23.39-.01.32.15.59.31.83.53.8.61,1.68.51,2.59-.08.78-.15,1.55-.62,2.25-.27.4-.66.63-.97.97-.37.41-.55.96-.99,1.28-.82.59-1.08,1.49-1.28,2.38-.13.57-.18,1.23.13,1.76.48.79.32,1.44-.27,2.06-.24.25-.39.54-.36.88.09.99.29,1.94,1.2,2.56.78.53,1.15,1.35,1.39,2.23.13.48.32.92.68,1.28.7.7,1.21,1.56,1.64,2.42.37.74.81,1.46,1.12,2.24.36.9,1.18,1.54,1.86,2.23.05.05.15.06.23.09.58.24,1.16.46,1.73.73,1.08.5,1.95,1.28,2.75,2.14.19.2.24.47.32.74.41,1.29.35,2.64.42,3.96.1,1.9.15,3.8.36,5.69.03.32.04.66-.03.97-.19.84-.1,1.66-.02,2.51.1,1.01.52,1.93.69,2.92.17,1.03.25,2.03.02,3.07-.18.82-.21,1.66-.3,2.5-.02.19-.02.39.07.56.55,1.02.73,2.15.94,3.27.14.79.4,1.55.96,2.2.94,1.08,1.32,2.41,1.45,3.82.04.41.15.8.38,1.15.26.39.38.83.45,1.3.12.83.26,1.66.8,2.36.1.12.13.3.21.43.66,1.08,1.08,2.32,2.02,3.22.62.6,1.25,1.11,2.23.74.72-.27,1.73.28,1.93,1.06.13.51.43.63.87.68.35.04.71-.01,1.05.13.62.26,1.28.23,1.93.23.33,0,.62-.05.68-.42.05-.36-.24-.52-.49-.68-.09-.05-.21-.06-.32-.06-.42,0-.81-.15-1.16-.34-.73-.41-1.53-.78-1.87-1.61-.19-.47-.48-.82-.85-1.15-.98-.88-.81-1.19-.42-1.96.05-.1.12-.21.11-.3-.07-.61.34-.93.7-1.31.66-.69.51-1.39-.35-1.82-.75-.37-1.02-1.27-.58-1.96.28-.45.51-.9.32-1.45-.1-.3.05-.55.23-.74.33-.36.5-.77.57-1.24.07-.47.26-.88.53-1.26.27-.38.47-.79.54-1.26.09-.6.49-.95,1.02-1.18.2-.09.42-.13.62-.2.95-.35,1.79-.81,1.83-2,0-.1.06-.21.1-.31.32-.87.63-1.73,1.43-2.31.41-.3.78-.69,1.01-1.16.33-.69.62-1.39.91-2.09.26-.65.42-1.36,1.05-1.79.65-.44.49-1.32,1.02-1.81.12-.11.23-.24.35-.34.29-.24.43-.56.43-.93,0-.43,0-.86-.12-1.29-.5-1.7-.21-2.4,1.31-3.32.26-.16.53-.27.82-.35.26-.08.52-.15.75-.32.59-.42,1.23-.62,1.97-.65.64-.03,1.39-.01,1.66-.86.03-.09.15-.15.25-.2.33-.19.43-.48.4-.83-.04-.46.12-.84.38-1.21.32-.47.63-.98.59-1.58-.03-.58,0-1.13.37-1.62.14-.18.1-.42.1-.63.01-.27-.03-.56.05-.81.18-.57.09-1.09-.07-1.67-.26-.93-.31-1.91.36-2.72.91-1.11,1.44-2.49,2.48-3.5.06-.06.11-.12.15-.19.88-1.49,1.22-3.05.65-4.76-.23-.69-.62-1.13-1.36-1.22Z"/>
        <path class="cls-3" d="M179.42,65.63c1.24-.26,1.66-.93,1.36-2.19-.18-.76-.03-1,.69-1.27,1.29-.48,2.33-1.25,2.81-2.61.07-.2.1-.42.27-.58.37-.34.48-.78.44-1.26-.03-.39.1-.75.46-.88.89-.34,1.68-.89,2.64-1.06.75-.13,1.51-.22,2.19-.6.15-.08.29-.17.25-.37-.03-.16-.18-.2-.3-.24-.5-.15-1.03-.13-1.54-.1-.99.06-1.98.01-2.91-.28-1.04-.33-2.1-.55-3.16-.74-1.75-.32-3.51-.38-5.27-.05-.69.13-1.36.23-2.09.16-.99-.1-2-.11-3.01.06-1.71.28-3.43.54-5.18.56-.46,0-.91.2-1.38.11-1.75-.33-3.44.41-5.18.29-.1,0-.22.03-.32.08-.56.23-1.14.37-1.73.43-1,.11-1.92.6-2.94.64-.25.01-.58.05-.7.34-.15.37-.48.42-.78.52-.88.3-1.82.27-2.73.38-.54.07-1.07.17-1.6.29-.37.09-.47.3-.48.64,0,.57.48,1.24,1.09,1.49.55.22,1.13.29,1.69.17,1.18-.25,2.32-.03,3.47.17.93.16,1.53.85,1.59,1.79.03.48-.05.93-.3,1.33-.29.47-.26.95,0,1.39.26.41.42.88.74,1.26.43.51.3.79-.38.91-1.45.25-2.21,1.13-2.2,2.6-.09.61.23,1.23.16,1.9-.07.69.07,1.35.36,1.98.18.39.4.77.6,1.15.29.55.38.61,1.03.46.59-.13,1.06.03,1.47.47.94,1.01,1.47.65,2.05.04.54-.57,1.17-1.05,1.51-1.8.09-.19.24-.38.42-.49.6-.37,1-.89,1.34-1.5.45-.83,1.1-1.33,2.14-1.38.58-.03,1.18-.11,1.77-.22,1.27-.23,2.44-.71,3.46-1.54.4-.32.83-.68,1.36-.69,1.02-.02,1.98-.35,2.97-.48.73-.09,1.42-.34,2.09-.66.56-.26,1.13-.53,1.75-.66Z"/>
        <path class="cls-5" d="M246.55,162.08c-.1-.57-.34-1.09-.59-1.6-.18-.38-.45-.4-.68-.07-.4.58-.81,1.17-1.11,1.8-.59,1.28-1.39,2.25-2.86,2.52-.36.07-.79.13-.97.53-.28.61-.73,1.18-.62,1.9.06.4.02.83.14,1.21.3,1.01-.14,1.83-.66,2.58-.38.55-.6,1.08-.51,1.66-.04.82.15,1.53.32,2.24.2.85,1.2,1.61,1.92,1.47.5-.1.98-.31,1.45-.5.14-.06.29-.19.35-.32.25-.54.58-1.05.72-1.64.33-1.29.86-2.52,1.32-3.76.38-1.04.9-2.05,1.05-3.16.09-.64.29-1.21.62-1.73.42-.66.52-1.35.3-2.1-.1-.34-.14-.69-.2-1.04Z"/>
        <path class="cls-5" d="M191.18,80.79c.34.37.76.61,1.19.83.38.2.62.56.61.98-.01.43-.43.4-.75.45-.39.07-.63.28-.68.7-.02.19-.08.37-.1.56-.07.63-.33,1.2-.49,1.8-.15.56.16.83.72.67.08-.02.16-.05.22-.1.82-.59,1.79-.59,2.73-.64.53-.03,1-.21,1.48-.41.17-.07.35-.19.36-.41,0-.31.23-.47.42-.67.55-.57.51-.96-.22-1.19-.5-.16-.72-.45-.8-.89-.08-.42-.24-.77-.62-1-.11-.07-.21-.18-.26-.3-.39-.82-.89-1.58-.81-2.59.07-.87-.71-1.54-1.72-1.55-.54-.12-.99.14-1.38.71-.35.5-.63.92-.5,1.61.1.57.24,1.02.62,1.44Z"/>
        <path class="cls-5" d="M184.08,68.71c-.4.05-.8.04-1.21.11-1.04.17-2.09.42-3.12.03-.81-.31-1.41.02-1.99.53-.27.23-.28.45,0,.67.34.26.53.59.67.99.14.4.4.67.88.71.7.06,1.41.05,2.07.34.05.02.11,0,.21.02.08-.03.22-.04.34-.11.97-.56,2.05-.83,3.11-1.13.34-.1.57-.31.78-.56.2-.24.23-.49,0-.73-.47-.5-.96-.96-1.74-.86Z"/>
        <path class="cls-5" d="M112.75,120.29c.43.46.97.78,1.51,1.09.23.13.34.32.4.58.13.57.26.69.76.53.5-.16.89-.04,1.3.22.41.25.84.18,1.23-.07.46-.3.48-.56.03-.86-.27-.18-.58-.3-.85-.48-.54-.36-1.23-.5-1.67-.99-.74-.82-1.7-1.23-2.7-1.6-.61-.23-1.2-.52-1.93-.44-.55-.11-1.07.2-1.62.29-.55.09-.95.39-1.32.75-.2.19-.54.44-.37.75.2.38.53.03.8,0,.51-.08.93-.47,1.47-.45.92.04,1.81.32,2.71.5.1.02.2.09.27.17Z"/>
        <path class="cls-5" d="M190.69,80.99c-.51-.36-1.74-.28-2.22.11-.33.27-.61.61-1.07.69-.56.1-.63.18-.55.77.07.49,0,.93-.3,1.31-.25.32-.18.59.02.89.19.29.39.53.76.47.27,0,.5-.09.7-.23.48-.34.99-.56,1.58-.59.25-.01.4-.14.5-.36.13-.3.31-.59.3-.92-.01-.35.1-.59.39-.83.46-.38.38-.96-.11-1.31Z"/>
        <path class="cls-5" d="M119,123.68c-.35.04-.7.1-1.04.17-.16.03-.3.14-.29.33,0,.15.13.25.27.27,1.04.13,2.08.55,3.13.34.76-.15,1.53-.29,2.29-.44.25-.05.5-.09.55-.39.06-.32-.18-.47-.41-.63-.62-.45-1.43-.47-2.04-.95-.12-.1-.37-.04-.56-.03-.24,0-.48.02-.58.03-.26-.02-.37-.05-.48-.03-.3.06-.68-.26-.9.08-.21.33.21.5.33.75.14.29.07.46-.27.49Z"/>
      </g>
    </g>
    <circle class="cls-4" cx="185.58" cy="117.08" r="2.82"/>
    <circle class="cls-4" cx="207.32" cy="120.57" r="2.82"/>
    <circle class="cls-4" cx="228.91" cy="127.67" r="2.82"/>
    <circle class="cls-4" cx="220.31" cy="169.28" r="2.82"/>
    <circle class="cls-4" cx="216.32" cy="144.92" r="2.82"/>
    <circle class="cls-4" cx="226.08" cy="89.65" r="2.82"/>
    <circle class="cls-4" cx="201.67" cy="88.06" r="2.82"/>
    <circle class="cls-4" cx="223.14" cy="73.23" r="2.82"/>
    <circle class="cls-4" cx="247.76" cy="92.48" r="2.82"/>
    <circle class="cls-4" cx="160.93" cy="69.28" r="2.82"/>
    <circle class="cls-4" cx="126.73" cy="88.06" r="2.82"/>
    <circle class="cls-4" cx="106.15" cy="76.05" r="2.82"/>
    <circle class="cls-4" cx="98.14" cy="90.89" r="2.82"/>
    <circle class="cls-4" cx="112.88" cy="99.31" r="2.82"/>
    <circle class="cls-4" cx="88.92" cy="111.44" r="2.82"/>
    <circle class="cls-4" cx="103.32" cy="127.67" r="2.82"/>
    <circle class="cls-4" cx="125.16" cy="137.29" r="2.82"/>
    <circle class="cls-4" cx="118.3" cy="153.79" r="2.82"/>
    <circle class="cls-4" cx="145.45" cy="153.79" r="2.82"/>
    <circle class="cls-4" cx="134.63" cy="160.17" r="2.82"/>
    <circle class="cls-4" cx="137.46" cy="176.35" r="2.82"/>
    <circle class="cls-4" cx="131.81" cy="193" r="2.82"/>
    <polygon class="cls-1" points="126.73 88.06 160.93 69.28 201.67 88.06 223.14 73.23 247.76 92.48 226.08 89.65 207.32 120.57 228.91 127.67 220.31 169.28 216.32 144.92 184.38 117.08 145.45 153.79 112.88 99.31 88.92 111.44 103.32 127.67 98.14 90.89 106.15 76.05 126.73 88.06"/>
    <polyline class="cls-1" points="103.32 127.67 118.3 153.79 125.16 137.29 134.63 160.17 137.46 176.35 131.81 193 220.31 169.28"/>
  </g>
  <path class="cls-4" d="M100.96,166.42c-.17,0-.34.02-.52.03-1.23-5.19-5.89-9.05-11.46-9.05-1.32,0-2.59.22-3.78.62-1.51-9.42-9.67-16.62-19.52-16.62s-17.73,6.96-19.43,16.15c-6.55.98-11.58,6.63-11.58,13.46,0,7.36,5.84,13.35,13.14,13.6h0s53.14.01,53.14.01c5.02,0,9.09-4.07,9.09-9.09s-4.07-9.09-9.09-9.09Z"/>
  <path class="cls-4" d="M267.9,60.62c-.15,0-.3.01-.45.02-1.08-4.56-5.18-7.96-10.07-7.96-1.16,0-2.28.19-3.32.55-1.33-8.28-8.5-14.61-17.16-14.61s-15.59,6.12-17.09,14.2c-5.76.86-10.18,5.83-10.18,11.83,0,6.47,5.14,11.74,11.55,11.96h0s46.73.01,46.73.01c4.42,0,8-3.58,8-8s-3.58-8-8-8Z"/>
</svg>