<?xml version="1.0" encoding="UTF-8"?>
<svg id="Capa_1" data-name="Capa 1" xmlns="http://www.w3.org/2000/svg" viewBox="0 0 275.35 259.66">
  <defs>
    <style>
      .cls-1, .cls-2, .cls-3 {
        stroke-miterlimit: 10;
      }

      .cls-1, .cls-3 {
        stroke: #fff;
      }

      .cls-1, .cls-4 {
        fill: #3bb079;
      }

      .cls-2 {
        fill: #4fb3bf;
        stroke: #4fb3bf;
        stroke-width: 3px;
      }

      .cls-3 {
        fill: none;
        stroke-dasharray: 0 4;
        stroke-width: .75px;
      }

      .cls-4, .cls-5, .cls-6 {
        stroke-width: 0px;
      }

      .cls-5 {
        fill: #1c5345;
      }

      .cls-6 {
        fill: #fff;
      }
    </style>
  </defs>
  <circle class="cls-6" cx="148.37" cy="135.06" r="65.89"/>
  <path class="cls-2" d="M148.37,69.17c-36.39,0-65.89,29.5-65.89,65.89s29.5,65.89,65.89,65.89,65.89-29.5,65.89-65.89-29.5-65.89-65.89-65.89ZM148.37,196.61c-33.99,0-61.55-27.56-61.55-61.55s27.56-61.55,61.55-61.55,61.55,27.56,61.55,61.55-27.56,61.55-61.55,61.55Z"/>
  <path class="cls-4" d="M211.43,128.61c5.34-3.93,25.97-20.85,24.85-46.78-.04-.97-.71-1.8-1.66-2.02-4.47-1.04-17.41-4.36-23.4-9.36-.79-.66-1.93-.64-2.73,0-2.91,2.37-10.39,7.42-23.13,9.28-1.09.16-1.89,1.12-1.84,2.22.33,7.06,3.1,31.47,25.43,46.72.75.51,1.74.48,2.47-.06Z"/>
  <path class="cls-6" d="M211,120.34c3.82-2.81,18.59-14.93,17.79-33.49-.03-.7-.51-1.29-1.19-1.45-3.2-.74-12.47-3.12-16.75-6.7-.56-.47-1.38-.46-1.95,0-2.08,1.7-7.44,5.31-16.56,6.64-.78.11-1.35.8-1.32,1.59.23,5.05,2.22,22.53,18.21,33.45.54.37,1.25.34,1.77-.04Z"/>
  <path class="cls-4" d="M207.45,109.27c-.06,0-.12,0-.18,0-.6-.06-1.13-.4-1.43-.91l-5.17-8.72c-.53-.89-.24-2.05.66-2.57.89-.53,2.05-.24,2.57.66l3.87,6.52,13.81-15.38c.69-.77,1.88-.84,2.65-.14.77.69.84,1.88.14,2.65l-15.51,17.29c-.36.4-.87.62-1.4.62Z"/>
  <polyline class="cls-3" points="162.61 69.17 162.61 45.69 183.23 45.69"/>
  <polyline class="cls-3" points="131.23 69.17 131.23 45.69 110.61 45.69"/>
  <circle class="cls-1" cx="110.61" cy="46.16" r="3.93"/>
  <circle class="cls-1" cx="35.28" cy="135.06" r="3.93"/>
  <circle class="cls-1" cx="79.18" cy="213.5" r="3.93"/>
  <circle class="cls-1" cx="218.2" cy="213.5" r="3.93"/>
  <circle class="cls-1" cx="59.59" cy="106.45" r="3.93"/>
  <circle class="cls-1" cx="240.07" cy="160.8" r="3.93"/>
  <circle class="cls-1" cx="182.95" cy="46.16" r="3.93"/>
  <line class="cls-3" x1="85.22" y1="106.45" x2="62.46" y2="106.45"/>
  <line class="cls-3" x1="234.16" y1="160.8" x2="211.4" y2="160.8"/>
  <line class="cls-3" x1="79.97" y1="135.06" x2="39.22" y2="135.06"/>
  <polyline class="cls-3" points="119.38 196.61 119.38 213.5 82.48 213.5"/>
  <polyline class="cls-3" points="170.57 200.95 170.57 213.5 214.27 213.5"/>
  <path class="cls-5" d="M174.25,121.21v-3.43c0-13.46-10.95-24.42-24.42-24.42s-24.42,10.95-24.42,24.42v3.43c-2.59.14-4.65,2.26-4.65,4.88v37.88c0,2.71,2.2,4.91,4.91,4.91h48.31c2.71,0,4.91-2.2,4.91-4.91v-37.88c0-2.62-2.06-4.74-4.65-4.88ZM155.03,158.85h-10.4l1.93-13.79c-2.39-1.2-4.04-3.67-4.04-6.53,0-4.04,3.27-7.31,7.31-7.31s7.31,3.27,7.31,7.31c0,2.89-1.69,5.39-4.13,6.57l2.01,13.75ZM166.97,121.19h-34.28v-2.84c0-9.45,7.69-17.14,17.14-17.14s17.14,7.69,17.14,17.14v2.84Z"/>
</svg>