<?xml version="1.0" encoding="UTF-8"?>
<svg id="Capa_1" data-name="Capa 1" xmlns="http://www.w3.org/2000/svg" viewBox="0 0 271.73 257.4">
  <defs>
    <style>
      .cls-1 {
        stroke: #217161;
        stroke-miterlimit: 10;
      }

      .cls-1, .cls-2 {
        fill: #fff;
      }

      .cls-3 {
        fill: #4fb3bf;
      }

      .cls-3, .cls-4, .cls-5, .cls-2 {
        stroke-width: 0px;
      }

      .cls-4 {
        fill: #3bb079;
      }

      .cls-5 {
        fill: #1c5345;
      }
    </style>
  </defs>
  <path class="cls-1" d="M138.57,107.51s-8.97-1.01-28.75,6.8c-16.89,6.67-25.51-1.4-25.51-1.4,0,0-8.43,21.42-10.3,31.63-1.87,10.21-.52,16.39-.52,16.39,0,0,31.63,25,49.54,36.29,17.91,11.28,21.48,12.88,25.63,8.33,5.88-6.46-.67-10.42-9.82-17.19,0,0,13.43,10.33,17.87,11.18,5.07.96,12.66-5.77,7.35-11.61-5.31-5.84-15.41-14.61-15.41-14.61,0,0,18.33,15.83,21.99,16.99,3.65,1.16,7.74-2.02,9.62-5.2,3.82-6.47-3.42-11.19-9.65-17.29-3.88-3.8-9.51-8.53-9.51-8.53,0,0,14.81,14.37,21.17,14.76,7.42.45,10.75-7.46,8.15-12.28-2.48-4.61-13.51-16.26-26.62-30.25-9.66-10.31-16.97-23.07-25.22-23.99Z"/>
  <path class="cls-4" d="M92.07,118.05l-15.86,44.16c-1.28,3.57-5.2,5.43-8.78,4.16l-26.76-9.48c-3.59-1.27-5.47-5.22-4.19-8.81l15.62-43.72c1.26-3.53,5.11-5.4,8.67-4.21l27.01,9.04c3.66,1.23,5.6,5.22,4.3,8.86Z"/>
  <path class="cls-5" d="M228.97,106.7l6.62,46.45c.53,3.75-2.06,7.23-5.81,7.78l-28.07,4.13c-3.77.55-7.27-2.06-7.82-5.83l-6.64-45.94c-.54-3.71,1.99-7.17,5.69-7.78l28.1-4.64c3.81-.63,7.39,2,7.94,5.82Z"/>
  <g>
    <path class="cls-3" d="M191.77,109.97s-16.59,1.33-26.24-.74c-8.21-1.77-22.06-5.86-25.61-5.09-3.55.77-6.19,1.14-12.53,7.96-6.34,6.82-12,13.68-13.87,15.09-1.87,1.41,3.97,6.06,11.86,5.29,7.9-.77,13.59-6.69,17.71-11.22,4.13-4.53,14.91,6.14,21.97,12.64,7.6,7.01,16.3,17.17,20.77,21.18,5.4,4.85,9.84,3.68,9.84,3.68,0,0,4.51-31.28-3.87-48.8Z"/>
    <rect class="cls-3" x="77.77" y="159.85" width="25.91" height="15.82" rx="7.91" ry="7.91" transform="translate(-93.46 118.26) rotate(-46.55)"/>
    <rect class="cls-3" x="90.2" y="169.68" width="25.91" height="15.82" rx="7.91" ry="7.91" transform="translate(-96.72 130.35) rotate(-46.55)"/>
    <rect class="cls-3" x="102.61" y="179.36" width="25.91" height="15.82" rx="7.91" ry="7.91" transform="translate(-99.86 142.39) rotate(-46.55)"/>
    <rect class="cls-3" x="115.02" y="189.04" width="25.91" height="15.82" rx="7.91" ry="7.91" transform="translate(-103.01 154.42) rotate(-46.55)"/>
  </g>
  <g>
    <path class="cls-2" d="M117.21,85.39c-.58,0-1.15-.26-1.53-.76l-16.2-21.5c-.64-.84-.47-2.04.38-2.68.84-.64,2.04-.47,2.68.38l16.2,21.5c.64.84.47,2.04-.38,2.68-.34.26-.75.39-1.15.39Z"/>
    <path class="cls-2" d="M162.16,85.39c-.4,0-.81-.13-1.15-.39-.84-.64-1.01-1.84-.38-2.68l16.2-21.5c.63-.84,1.83-1.01,2.68-.38.84.64,1.01,1.84.38,2.68l-16.2,21.5c-.38.5-.95.76-1.53.76Z"/>
    <path class="cls-2" d="M139.69,78.1c-1.06,0-1.91-.86-1.91-1.91v-25.39c0-1.06.86-1.91,1.91-1.91s1.91.86,1.91,1.91v25.39c0,1.06-.86,1.91-1.91,1.91Z"/>
  </g>
</svg>