<?xml version="1.0" encoding="UTF-8"?>
<svg id="Capa_1" data-name="Capa 1" xmlns="http://www.w3.org/2000/svg" viewBox="0 0 342.8 134">
  <defs>
    <style>
      .cls-1 {
        fill: #3aaf79;
      }

      .cls-2 {
        fill: #fff;
      }
    </style>
  </defs>
  <g>
    <path class="cls-2" d="M119.2,17.5L17.8,119c-3.1,3.1-8.3.9-8.3-3.4V14.1c0-2.7,2.2-4.9,4.9-4.9h101.4c4.4,0,6.6,5.2,3.5,8.3h-.1Z"/>
    <path class="cls-2" d="M119.2,119.1l-42.6-42.6c-3.1-3.1-.9-8.3,3.4-8.3h42.6c2.7,0,4.9,2.2,4.9,4.9v42.6c0,4.3-5.2,6.5-8.3,3.4Z"/>
  </g>
  <path class="cls-2" d="M186.9,39.6h29.6v18.7c0,14.2-7.3,20.4-21.8,20.4h-14.7c-14.6,0-21.9-6.2-21.9-20.4v-29.4c0-14.1,7.3-20.1,21.9-20.1h14.7c14.5,0,21.8,6.1,21.8,20.1v3.5h-14.7v-2.9c0-5.7-2.5-7.9-8.2-7.9h-12.5c-5.7,0-8.2,2.2-8.2,7.9v28.4c0,5.7,2.5,7.9,8.2,7.9h12.7c5.7,0,8.3-2.2,8.3-7.9v-6.3h-15.1v-12h-.1Z"/>
  <path class="cls-2" d="M223.3,27h12.5l.8,5.7c2.5-4.6,7.2-6.7,14.1-6.7h8v12.5h-15.3c-4.2,0-5.9,1.5-5.9,5.6v34.2h-14.2V27h0Z"/>
  <rect class="cls-2" x="263.9" y="8.7" width="14.2" height="13.1"/>
  <rect class="cls-2" x="263.9" y="27" width="14.2" height="51.4"/>
  <path class="cls-2" d="M320.1,71.9c-2.5,4.7-7.2,6.8-14.2,6.8h-2.9c-11.9,0-17.8-5.2-17.8-16.9v-19.8c0-11.6,6-16.7,17.8-16.7h2.9c6.2,0,10.5,1.6,13.2,5.3V8.7h14.2v68.9h-12.5l-.8-5.8.1.1ZM319,43.3c0-4-1.7-5.6-5.8-5.6h-8.1c-4,0-5.9,1.5-5.9,5.6v17.3c0,4,1.8,5.6,5.9,5.6h8.1c4,0,5.8-1.6,5.8-5.6v-17.3Z"/>
  <g>
    <path class="cls-1" d="M168.91,116.67c-1.4,0-2.68-.23-3.85-.69-1.17-.46-2.19-1.11-3.06-1.95-.87-.84-1.55-1.83-2.03-2.95s-.72-2.36-.72-3.72.24-2.6.72-3.72c.48-1.12,1.16-2.1,2.04-2.95.88-.84,1.9-1.49,3.08-1.95s2.46-.69,3.85-.69c1.48,0,2.83.25,4.06.76,1.22.51,2.26,1.26,3.1,2.26l-2.17,2.04c-.67-.71-1.41-1.24-2.22-1.59-.81-.35-1.68-.53-2.61-.53s-1.81.16-2.6.47c-.78.31-1.47.75-2.04,1.32-.58.57-1.03,1.24-1.36,2.02-.33.78-.49,1.63-.49,2.56s.16,1.78.49,2.56c.33.78.78,1.45,1.36,2.02.58.57,1.26,1.01,2.04,1.32.78.31,1.65.47,2.6.47s1.8-.18,2.61-.53c.81-.35,1.55-.89,2.22-1.62l2.17,2.04c-.84,1-1.88,1.76-3.1,2.28-1.22.52-2.58.78-4.08.78Z"/>
    <path class="cls-1" d="M179.04,116.41v-19.18h3.21v19.18h-3.21Z"/>
    <path class="cls-1" d="M192.69,116.59c-1.4,0-2.65-.31-3.76-.92-1.11-.61-1.99-1.45-2.62-2.52-.64-1.07-.96-2.28-.96-3.64s.32-2.62.96-3.67c.64-1.05,1.51-1.88,2.61-2.5,1.1-.61,2.36-.92,3.77-.92s2.7.31,3.81.92c1.11.61,1.98,1.44,2.61,2.5.63,1.05.94,2.27.94,3.67s-.31,2.6-.94,3.66c-.63,1.06-1.5,1.9-2.62,2.51-1.12.61-2.39.92-3.8.92ZM192.69,113.85c.79,0,1.5-.18,2.12-.53.62-.35,1.11-.86,1.46-1.52.35-.66.53-1.43.53-2.29s-.18-1.64-.53-2.29c-.35-.65-.84-1.15-1.46-1.5-.62-.35-1.32-.53-2.09-.53s-1.47.18-2.09.53c-.62.35-1.11.85-1.47,1.5-.36.65-.54,1.41-.54,2.29s.18,1.62.54,2.29c.36.66.85,1.17,1.47,1.52.62.35,1.31.53,2.07.53Z"/>
    <path class="cls-1" d="M207.45,116.59c-1.17,0-2.28-.15-3.33-.45-1.05-.3-1.9-.67-2.53-1.1l1.24-2.46c.62.4,1.36.72,2.22.97.86.25,1.73.38,2.61.38,1,0,1.73-.13,2.18-.4.46-.27.69-.63.69-1.1,0-.38-.16-.67-.47-.87-.31-.2-.72-.35-1.21-.45-.5-.1-1.06-.2-1.67-.28-.61-.09-1.22-.2-1.83-.35-.61-.15-1.17-.36-1.67-.65-.5-.29-.9-.67-1.21-1.15s-.47-1.13-.47-1.94c0-.86.25-1.62.75-2.26s1.2-1.15,2.11-1.51c.9-.36,1.98-.54,3.22-.54.91,0,1.85.11,2.8.32.96.22,1.75.51,2.39.89l-1.27,2.46c-.64-.38-1.29-.64-1.96-.79-.67-.15-1.34-.22-1.99-.22-.96,0-1.69.14-2.17.43-.48.28-.72.65-.72,1.1,0,.41.16.72.47.93.31.21.71.37,1.21.48s1.06.21,1.67.31c.61.09,1.22.22,1.82.36.6.15,1.16.35,1.67.62.51.27.92.64,1.23,1.12.31.48.46,1.11.46,1.89,0,.88-.25,1.63-.76,2.26-.51.63-1.22,1.12-2.15,1.47-.92.35-2.03.53-3.32.53Z"/>
    <path class="cls-1" d="M222.96,116.59c-1.53,0-2.87-.31-4.02-.92-1.15-.61-2.03-1.45-2.66-2.51-.63-1.06-.94-2.28-.94-3.66s.31-2.6.92-3.66c.61-1.06,1.46-1.9,2.53-2.51,1.08-.61,2.3-.92,3.68-.92s2.54.3,3.59.89c1.05.59,1.88,1.43,2.48,2.5.6,1.07.9,2.34.9,3.8,0,.12,0,.27-.01.45s-.02.34-.04.48h-11.5v-2.15h9.8l-1.29.67c.02-.78-.14-1.47-.48-2.08-.34-.61-.8-1.09-1.38-1.42-.59-.34-1.28-.5-2.07-.5s-1.47.17-2.08.5c-.61.34-1.08.81-1.41,1.43-.33.62-.49,1.34-.49,2.15v.52c0,.83.18,1.56.56,2.2.37.64.9,1.13,1.59,1.49s1.49.53,2.4.53c.78,0,1.47-.13,2.09-.39.62-.26,1.17-.64,1.65-1.14l1.76,2.02c-.64.72-1.43,1.28-2.37,1.65s-2.01.57-3.22.57Z"/>
    <path class="cls-1" d="M238.4,116.59c-1.33,0-2.52-.29-3.58-.88-1.06-.59-1.89-1.41-2.49-2.47-.6-1.06-.91-2.3-.91-3.74s.3-2.65.91-3.72c.6-1.07,1.43-1.9,2.49-2.48,1.06-.59,2.25-.88,3.58-.88,1.15,0,2.19.25,3.1.76.91.51,1.64,1.28,2.17,2.33s.8,2.37.8,3.99-.26,2.93-.78,3.98c-.52,1.05-1.23,1.83-2.13,2.34-.91.51-1.96.76-3.17.76ZM238.79,113.85c.78,0,1.47-.18,2.08-.53.61-.35,1.1-.86,1.47-1.52.37-.66.56-1.43.56-2.29s-.19-1.64-.56-2.29c-.37-.65-.86-1.15-1.47-1.5-.61-.35-1.31-.53-2.08-.53s-1.47.18-2.08.53c-.61.35-1.1.85-1.47,1.5-.37.65-.56,1.41-.56,2.29s.18,1.62.56,2.29c.37.66.86,1.17,1.47,1.52.61.35,1.31.53,2.08.53ZM243,116.41v-3.26l.08-3.67-.26-3.67v-8.58h3.26v19.18h-3.08Z"/>
    <path class="cls-1" d="M255.2,116.41l8.14-18.1h3.31l8.17,18.1h-3.54l-6.98-16.31h1.34l-7.01,16.31h-3.44ZM258.95,112.23l.93-2.64h9.75l.9,2.64h-11.58Z"/>
    <path class="cls-1" d="M276.84,116.41v-19.18h3.21v19.18h-3.21Z"/>
    <path class="cls-1" d="M284.31,121.43v-18.82h3.08v3.26l-.13,3.67.26,3.67v8.22h-3.21ZM291.94,116.59c-1.14,0-2.16-.25-3.08-.76-.91-.51-1.64-1.29-2.17-2.34-.53-1.05-.8-2.38-.8-3.98s.25-2.95.76-3.99c.51-1.04,1.23-1.82,2.16-2.33.93-.51,1.97-.76,3.13-.76,1.34,0,2.54.29,3.59.88,1.05.59,1.88,1.41,2.5,2.48.61,1.07.92,2.31.92,3.72s-.31,2.68-.92,3.74c-.61,1.06-1.44,1.88-2.5,2.47-1.05.59-2.25.88-3.59.88ZM291.55,113.85c.79,0,1.5-.18,2.11-.54.61-.36,1.1-.87,1.46-1.53.36-.65.54-1.41.54-2.27s-.18-1.64-.54-2.29-.85-1.15-1.46-1.5c-.61-.35-1.31-.53-2.11-.53s-1.45.18-2.07.53c-.62.35-1.11.85-1.47,1.5-.36.65-.54,1.41-.54,2.29s.18,1.62.54,2.27c.36.66.85,1.16,1.47,1.53.62.36,1.31.54,2.07.54Z"/>
    <path class="cls-1" d="M309.85,102.43c1.12,0,2.11.22,2.96.65.85.43,1.53,1.09,2.04,1.99.51.9.76,2.04.76,3.44v7.91h-3.23v-7.5c0-1.22-.28-2.14-.85-2.74-.57-.6-1.38-.91-2.43-.91-.76,0-1.43.16-2.02.47-.59.31-1.04.77-1.36,1.38-.32.61-.48,1.38-.48,2.31v6.98h-3.21v-19.18h3.21v9.13l-.67-1.16c.46-.88,1.16-1.56,2.08-2.04.92-.48,1.99-.72,3.19-.72Z"/>
    <path class="cls-1" d="M323.89,116.59c-1.03,0-1.94-.18-2.71-.53-.78-.35-1.37-.84-1.8-1.47-.42-.63-.63-1.34-.63-2.13s.18-1.47.56-2.09c.37-.62.98-1.11,1.82-1.47.84-.36,1.96-.54,3.36-.54h4.01v2.15h-3.77c-1.09,0-1.82.18-2.21.53-.39.35-.58.8-.58,1.33,0,.57.23,1.03.7,1.37.46.34,1.11.52,1.94.52s1.5-.18,2.13-.54c.63-.36,1.09-.9,1.38-1.6l.52,1.94c-.31.81-.86,1.44-1.65,1.89-.79.45-1.81.67-3.05.67ZM328.23,116.41v-2.82l-.15-.57v-4.89c0-.95-.29-1.68-.87-2.21-.58-.53-1.45-.79-2.62-.79-.76,0-1.51.12-2.25.36-.74.24-1.38.58-1.91,1.01l-1.27-2.35c.76-.57,1.65-1,2.66-1.29s2.08-.44,3.18-.44c2.02,0,3.57.48,4.65,1.45,1.09.96,1.63,2.45,1.63,4.45v8.09h-3.05Z"/>
  </g>
</svg>