<?xml version="1.0" encoding="utf-8"?>
<!-- Generator: Adobe Illustrator 28.2.0, SVG Export Plug-In . SVG Version: 6.00 Build 0)  -->
<svg version="1.1" id="Capa_1" xmlns="http://www.w3.org/2000/svg" xmlns:xlink="http://www.w3.org/1999/xlink" x="0px" y="0px"
	 viewBox="0 0 590.5 252.6" style="enable-background:new 0 0 590.5 252.6;" xml:space="preserve">
<style type="text/css">
	.st0{fill:#3BB079;}
	.st1{fill:#8CD3AE;}
	.st2{opacity:0.51;fill:#8CD3AE;}
	.st3{opacity:0.51;}
	.st4{fill:#3BAF79;}
	.st5{fill:#FFFFFF;}
	.st6{opacity:0.51;fill:#FFFFFF;}
</style>
<g>
	<g>
		<path class="st0" d="M223.8,46.5L52.9,217.5c-5.2,5.2-14,1.5-14-5.8V40.7c0-4.5,3.7-8.2,8.2-8.2H218
			C225.3,32.5,229,41.3,223.8,46.5z"/>
		<path class="st1" d="M223.8,217.7L152.1,146c-5.2-5.2-1.5-14,5.8-14h71.7c4.5,0,8.2,3.7,8.2,8.2v71.7
			C237.9,219.2,229,222.9,223.8,217.7z"/>
	</g>
	<g>
		<path class="st0" d="M355,120.7h39.8v25.2c0,19.1-9.8,27.4-29.3,27.4h-19.8c-19.6,0-29.4-8.3-29.4-27.4v-39.5
			c0-18.9,9.8-27.1,29.4-27.1h19.8c19.5,0,29.3,8.2,29.3,27.1v4.8H375v-4c0-7.6-3.4-10.6-11-10.6h-16.9c-7.6,0-11,3-11,10.6v38.1
			c0,7.6,3.4,10.6,11,10.6h17c7.8,0,11.2-3,11.2-10.6v-8.5H355L355,120.7L355,120.7z"/>
		<path class="st0" d="M404,103.9h16.9l1,7.8c3.4-6.1,9.7-9,18.9-9h10.8v16.8H431c-5.6,0-7.9,2-7.9,7.5v46H404V103.9z"/>
		<rect x="458.5" y="79.3" class="st0" width="19.1" height="17.7"/>
		<rect x="458.5" y="103.9" class="st0" width="19.1" height="69.1"/>
		<path class="st0" d="M533.9,164.2c-3.3,6.3-9.7,9.1-19.1,9.1h-4c-15.9,0-24-6.9-24-22.6V124c0-15.7,8-22.5,24-22.5h4
			c8.3,0,14.2,2.2,17.7,7.1V79.3h19.1v92.6h-16.8L533.9,164.2z M532.6,125.8c0-5.4-2.3-7.5-7.8-7.5h-10.9c-5.5,0-7.9,2-7.9,7.5V149
			c0,5.3,2.4,7.5,7.9,7.5h10.9c5.5,0,7.8-2.2,7.8-7.5V125.8z"/>
	</g>
</g>
</svg>
