<?xml version="1.0" encoding="utf-8"?>
<!-- Generator: Adobe Illustrator 28.2.0, SVG Export Plug-In . SVG Version: 6.00 Build 0)  -->
<svg version="1.1" id="Capa_1" xmlns="http://www.w3.org/2000/svg" xmlns:xlink="http://www.w3.org/1999/xlink" x="0px" y="0px"
	 viewBox="0 0 527.5 618.9" style="enable-background:new 0 0 527.5 618.9;" xml:space="preserve">
<style type="text/css">
	.st0{fill:#3BB079;}
	.st1{fill:#8CD3AE;}
	.st2{opacity:0.51;fill:#8CD3AE;}
	.st3{opacity:0.51;}
	.st4{fill:#3BAF79;}
	.st5{fill:#FFFFFF;}
	.st6{opacity:0.51;fill:#FFFFFF;}
</style>
<g>
	<g>
		<path class="st5" d="M185.2,534.4h39.6v25.1c0,19-9.8,27.2-29.1,27.2H176c-19.5,0-29.3-8.3-29.3-27.2v-39.3c0-18.8,9.8-27,29.3-27
			h19.7c19.4,0,29.1,8.1,29.1,27v4.7h-19.7V521c0-7.6-3.4-10.6-11-10.6h-16.8c-7.6,0-11,3-11,10.6v37.9c0,7.6,3.4,10.6,11,10.6h16.9
			c7.7,0,11.1-3,11.1-10.6v-8.4h-20.2L185.2,534.4L185.2,534.4z"/>
		<path class="st5" d="M233.9,517.7h16.8l1,7.7c3.4-6.1,9.6-8.9,18.8-8.9h10.7v16.7h-20.5c-5.6,0-7.9,2-7.9,7.5v45.8h-19V517.7z"/>
		<rect x="288.1" y="493.2" class="st5" width="19" height="17.6"/>
		<rect x="288.1" y="517.7" class="st5" width="19" height="68.7"/>
		<path class="st5" d="M363.2,577.6c-3.3,6.2-9.6,9.1-19,9.1h-3.9c-15.9,0-23.9-6.9-23.9-22.5v-26.6c0-15.6,8-22.4,23.9-22.4h3.9
			c8.3,0,14.1,2.2,17.6,7v-29.1h19v92.1h-16.7L363.2,577.6z M361.8,539.4c0-5.4-2.3-7.5-7.7-7.5h-10.8c-5.4,0-7.9,2-7.9,7.5v23.2
			c0,5.3,2.4,7.5,7.9,7.5h10.8c5.4,0,7.7-2.2,7.7-7.5V539.4z"/>
	</g>
	<g>
		<path class="st5" d="M431.2,59.7L96.3,394.5c-10.1,10.1-27.5,3-27.5-11.4V48.3c0-8.9,7.2-16.1,16.1-16.1h334.8
			C434.1,32.2,441.3,49.5,431.2,59.7z"/>
		<path class="st5" d="M431.2,395L290.7,254.6c-10.1-10.1-3-27.5,11.4-27.5h140.4c8.9,0,16.1,7.2,16.1,16.1v140.4
			C458.6,397.9,441.3,405.1,431.2,395z"/>
	</g>
</g>
</svg>
