<?xml version="1.0" encoding="UTF-8"?>
<svg id="Capa_1" data-name="Capa 1" xmlns="http://www.w3.org/2000/svg" viewBox="0 0 100 98.46">
  <defs>
    <style>
      .cls-1 {
        opacity: .65;
      }

      .cls-2 {
        fill: #fff;
        stroke-width: 0px;
      }
    </style>
  </defs>
  <g class="cls-1">
    <path class="cls-2" d="M78.41,37.29h-1.12c0-14.35-11.65-25.98-26-25.98-14.34,0-25.97,11.63-25.98,25.98h-1.12c-8.56,0-15.49,6.94-15.49,15.49v6.62c0,8.56,6.94,15.49,15.49,15.49h1.16c.29,6.2,5.41,11.08,11.62,11.08h6.04c2.14,0,3.87-1.73,3.87-3.87s-1.73-3.87-3.87-3.87h-6.08c-2.14,0-3.87-1.73-3.87-3.87v-36.52c0-10.07,8.18-18.24,18.25-18.23,10.07,0,18.23,8.17,18.23,18.23v33.19c0,2.14,1.73,3.87,3.87,3.87h5c8.56,0,15.49-6.94,15.49-15.49v-6.62c0-8.56-6.94-15.49-15.49-15.49ZM16.45,59.4v-6.62c0-4.28,3.47-7.75,7.75-7.75h1.12v22.11h-1.12c-4.28,0-7.75-3.47-7.75-7.75ZM86.16,59.4c0,4.28-3.47,7.75-7.75,7.75h-1.12v-22.11h1.12c4.28,0,7.75,3.47,7.75,7.75v6.62Z"/>
  </g>
</svg>