<?xml version="1.0" encoding="UTF-8"?>
<svg id="Capa_1" data-name="Capa 1" xmlns="http://www.w3.org/2000/svg" viewBox="0 0 285.74 285.74">
  <defs>
    <style>
      .cls-1 {
        fill: #161f21;
      }

      .cls-1, .cls-2, .cls-3 {
        stroke-width: 0px;
      }

      .cls-2 {
        fill: #1c1c1a;
      }

      .cls-3 {
        fill: #fff;
      }
    </style>
  </defs>
  <circle class="cls-3" cx="142.87" cy="142.87" r="142.87"/>
  <g>
    <path class="cls-1" d="M154.98,132.84l47.38-55.08h-11.23l-41.14,47.83-32.86-47.83h-37.9l49.69,72.32-49.69,57.76h11.23l43.45-50.51,34.7,50.51h37.9l-51.54-75h0ZM139.6,150.72l-5.03-7.2-40.06-57.3h17.25l32.33,46.25,5.03,7.2,42.03,60.11h-17.25l-34.29-49.05h0Z"/>
    <path class="cls-2" d="M210.78,210.09h-43.36l-33.72-49.08-42.22,49.08h-17.16l51.76-60.16-51.13-74.42h43.36l31.88,46.4,39.91-46.4h17.16l-49.45,57.48,52.97,77.1ZM169.79,205.59h32.45l-50.09-72.91,45.32-52.68h-5.3l-42.37,49.25-33.84-49.25h-32.45l48.25,70.22-47.63,55.36h5.3l44.68-51.94,35.69,51.94ZM195.46,202.02h-22.73l-82.53-118.06h22.73l82.53,118.06ZM175.06,197.52h11.76l-76.25-109.06h-11.76l76.25,109.06Z"/>
  </g>
</svg>